<?xml version="1.0" encoding="UTF-8" standalone="no"?>
<svg
   version="1.1"
   id="Layer_1"
   x="0px"
   y="0px"
   viewBox="0 0 540 692"
   xml:space="preserve"
   width="540"
   height="692"
   xmlns="http://www.w3.org/2000/svg"
   xmlns:svg="http://www.w3.org/2000/svg"><defs
   id="defs1" />
<style
   type="text/css"
   id="style1">
	.st0{fill:#262726;}
	.st1{fill:#456DB5;}
	.st2{fill:#20599C;}
	.st3{fill:#16416F;}
	.st4{fill:#DCDCDB;}
	.st5{fill:#505050;}
	.st6{fill:#FECE0B;}
	.st7{fill:#EDA221;}
	.st8{fill:#C0812B;}
	.st9{fill:#C62631;}
	.st10{fill:#1C1C1C;}
</style>
<g
   id="XMLID_1_"
   transform="translate(-32,-56)">
	<path
   id="XMLID_370_"
   class="st0"
   d="m 109,714.4 v -48 l 2.8,-0.9 c 0,0 30,3.8 36,4 6,0.2 52.8,2.5 52.8,2.5 l 88,0.8 47,0.3 86.3,-1.5 c 0,0 65.3,-3.8 69.8,-4.3 4.5,-0.5 11.5,-0.9 11.5,-0.9 v 48 c 0,0 -10.3,4.1 -16.8,4.8 -6.5,0.7 -15.5,0.8 -18,3.8 -2.5,3 -4.1,9.3 -7.5,11.8 -3.4,2.5 -32.5,1.3 -32.5,1.3 0,0 -45.5,1.8 -92.5,2.5 -47,0.7 -67,0.3 -67,0.3 l -76.5,-1.8 c 0,0 -36.5,-0.5 -39.8,-1.8 -3.3,-1.3 -6.8,-10.8 -8.8,-12.8 -2,-2 -18.8,-3.8 -18.8,-3.8 l -14.3,-2.3 z" />
	<path
   id="XMLID_428_"
   class="st0"
   d="m 549.4,529.9 c 0,0.5 -0.1,0.9 -0.1,1.3 -1.8,17.9 -4.5,34.2 -8.8,46.2 -13.2,37.8 -44.4,75.5 -57.5,90.4 -4.8,0.4 -14.4,1.2 -16.5,1 -2.8,-0.3 -50.3,2.9 -63.8,3.1 -13.5,0.2 -96.8,1.3 -96.8,1.3 0,0 -83.3,-1 -96.8,-1.3 -13.5,-0.3 -60.9,-3.4 -63.8,-3.1 -2.1,0.2 -11.8,-0.6 -16.5,-1 -13.1,-14.9 -44.3,-52.6 -57.5,-90.4 -4.2,-12 -7,-28.3 -8.8,-46.2 0,-0.4 -0.1,-0.8 -0.1,-1.3 2.2,1.4 6.5,3.8 13,5.5 9.8,2.5 29.2,4.2 42.5,4.3 13.3,0.2 65.5,1.8 65.5,1.8 l 39.3,0.5 95.2,0.8 92.2,-0.7 73.3,-1.8 c 0,0 40.4,-1.1 53,-5.2 6.2,-1.7 10.3,-3.6 13,-5.2 z" />
	<path
   id="XMLID_427_"
   class="st1"
   d="m 551.8,485.6 c -0.3,14.5 -1,29.1 -2.3,42.9 0,0.4 -0.1,0.9 -0.1,1.3 0,0 0,0.1 0,0.1 -2.7,1.5 -6.8,3.5 -12.7,5.4 -12.6,4.1 -53,5.2 -53,5.2 l -73.3,1.8 -92.2,0.7 -95.2,-0.8 -39.3,-0.5 c 0,0 -52.2,-1.7 -65.5,-1.8 -13.3,-0.2 -32.7,-1.8 -42.5,-4.3 -6.5,-1.7 -10.9,-4.1 -13,-5.5 0,0 0,-0.1 0,-0.2 0,-0.4 -0.1,-0.9 -0.1,-1.3 -1.3,-13.8 -2,-28.5 -2.3,-42.9 -1,-42.2 1.3,-82.4 1.8,-92.6 1,-18.5 18,-169.5 22,-199 2.3,-17 5.4,-50.2 48.4,-75.2 31.4,-18.3 84.2,-32.3 173.6,-32.3 89.4,0 142.2,13.9 173.6,32.3 42.9,25 46.1,58.2 48.4,75.2 4,29.5 21,180.5 22,199 0.5,10.1 2.7,50.3 1.7,92.5 z" />
	<path
   id="XMLID_393_"
   class="st2"
   d="m 514,493.7 c -41.7,1.7 -186,3.3 -208,3.3 -22,0 -166.3,-1.7 -208,-3.3 -29.9,-1.2 -36.5,-5.6 -37.8,-8.1 0.3,14.5 1,29.1 2.3,42.9 0,0.4 0.1,0.9 0.1,1.3 3.3,2.6 8.1,5 14.9,6.3 18.8,3.7 61.5,4.7 61.5,4.7 l 73.5,1.2 c 0,0 85.3,1 85.7,1 0.4,0 7.8,-0.5 7.8,-0.5 0,0 7.4,0.5 7.8,0.5 0.4,0 85.7,-1 85.7,-1 l 73.5,-1.2 c 0,0 42.7,-1 61.5,-4.7 6.8,-1.3 11.5,-3.7 14.9,-6.3 0,-0.4 0.1,-0.9 0.1,-1.3 1.3,-13.8 2,-28.5 2.3,-42.9 -1.3,2.4 -7.9,6.9 -37.8,8.1 z" />
	<g
   id="XMLID_365_">
		<circle
   id="XMLID_363_"
   class="st3"
   cx="421.5"
   cy="519.70001"
   r="16.200001" />
		<circle
   id="XMLID_418_"
   class="st3"
   cx="190.5"
   cy="519.70001"
   r="16.200001" />
		<circle
   id="XMLID_416_"
   class="st3"
   cx="152.8"
   cy="517.90002"
   r="16.200001" />
		<circle
   id="XMLID_360_"
   class="st3"
   cx="383.29999"
   cy="520.40002"
   r="16.200001" />
		<circle
   id="XMLID_420_"
   class="st3"
   cx="228.7"
   cy="520.40002"
   r="16.200001" />
		<circle
   id="XMLID_402_"
   class="st3"
   cx="459.29999"
   cy="517.90002"
   r="16.200001" />
	</g>
	<circle
   id="XMLID_417_"
   class="st4"
   cx="152.8"
   cy="517.90002"
   r="13.2" />
	<circle
   id="XMLID_412_"
   class="st4"
   cx="459.29999"
   cy="517.90002"
   r="13.2" />
	<path
   id="XMLID_387_"
   class="st5"
   d="m 75,347.8 9.2,-91.2 c 0,0 1.7,-2.8 5.5,-4 3.8,-1.2 19.2,0.2 22.7,1.2 3.5,1 5.8,4.3 6.7,7 0.8,2.7 -0.2,61.3 -0.5,64.8 -0.3,3.5 -4.3,11.3 -9,18.3 -4.7,7 -10,9.5 -11.2,10 -1.2,0.5 -18.3,-0.5 -18.3,-0.5 0,0 -5.6,-1.1 -5.1,-5.6 z" />
	<path
   id="XMLID_385_"
   class="st5"
   d="m 494.3,327.8 c 0,0 -2.3,-27.3 -1.8,-40.8 0.5,-13.5 -0.5,-27 3,-30.8 3.5,-3.8 18,-3.5 18.5,-3.5 0.5,0 7.3,-0.3 10.3,1 3,1.3 3.5,3 3.8,4.7 0.3,1.7 9.2,89.2 9.2,89.2 0,0 0.2,4.7 -3.3,5.7 -3.5,1 -17.2,1.2 -17.2,1.2 0,0 -5.8,-1 -8.7,-3.7 -2.8,-2.7 -11.7,-15.5 -11.7,-15.5 0,0 -2.4,-6.1 -2.1,-7.5 z" />
	<path
   id="XMLID_403_"
   class="st0"
   d="m 492.2,323.4 c 0.1,4.5 1.4,8.9 3.7,12.8 3.9,6.6 8.7,12.2 12.1,15.7 2.2,2.3 5.3,3.6 8.5,3.6 0.1,0 0.2,0 0.3,0 l 13.7,-0.4 c 1.8,0 4.6,-1.1 5.8,-2.4 1.2,-1.3 1.8,-3.1 1.6,-4.9 -2,-21.2 -7.2,-70.3 -9.3,-90.4 -0.4,-3.6 -4.2,-6.2 -8.2,-6.1 -6.6,0.1 -14.2,0.4 -19.5,0.8 -5.1,0.4 -9,4.5 -9.2,9.6 -0.5,22.6 0.2,50.7 0.5,61.7 z m 38.2,29.2 -2.7,0.1 -2.8,-97.8 c 1.1,0.6 2,1.5 2.1,2.8 1.7,15.7 7.3,68.6 9.3,90.4 0.1,1.1 0,2 -1,3 -1.1,1.1 -3.8,1.4 -4.9,1.5 z m -36.1,-90.8 c 0.1,-3.8 3,-6.9 6.8,-7.2 5.1,-0.4 12.5,-0.8 19,-0.8 0.1,0 0.2,0 0.3,0 0.7,0 1.6,0.1 2.4,0.3 l 2.9,98.6 -8.9,0.3 c -2.6,0.1 -5.2,-1 -7,-2.9 -3.3,-3.4 -7.9,-8.8 -11.7,-15.2 -2.1,-3.5 -3.2,-7.5 -3.4,-11.6 -0.3,-11 -1,-39 -0.4,-61.5 z" />
	<path
   id="XMLID_391_"
   class="st0"
   d="m 383.3,78.8 c -0.8,-2.7 -3.3,-4.6 -6.1,-4.6 H 306 234.8 c -2.8,0 -5.3,1.9 -6.1,4.6 l -4.2,14.4 7,5.1 59.3,-8.1 15.3,0.6 15.3,-0.6 59.3,8.1 7,-5.1 z" />
	<circle
   id="XMLID_384_"
   class="st5"
   cx="341"
   cy="69"
   r="16.799999" />
	<circle
   id="XMLID_389_"
   class="st5"
   cx="271"
   cy="69"
   r="16.799999" />
	<circle
   id="XMLID_396_"
   class="st5"
   cx="271"
   cy="69"
   r="16.799999" />
	<path
   id="XMLID_422_"
   class="st6"
   d="m 306,86.5 c -89.4,0 -142.2,13.9 -173.6,32.3 1.5,9.6 4.9,32.9 9.6,75.7 4.6,41.7 11.4,110.8 15,147.8 1.4,14.3 13.4,25.2 27.8,25.2 H 306 427.2 c 14.4,0 26.4,-10.9 27.8,-25.2 3.6,-37 10.5,-106.1 15,-147.8 4.7,-42.8 8.1,-66.2 9.6,-75.7 C 448.2,100.4 395.4,86.5 306,86.5 Z" />
	<path
   id="XMLID_373_"
   class="st7"
   d="m 326.6,156.8 h -41.2 c -1.3,0 -2.4,-1.1 -2.4,-2.4 v -33.2 c 0,-1.3 1.1,-2.4 2.4,-2.4 h 41.2 c 1.3,0 2.4,1.1 2.4,2.4 v 33.2 c 0,1.3 -1.1,2.4 -2.4,2.4 z" />
	<path
   id="XMLID_383_"
   class="st7"
   d="m 383,158.2 -41.1,-1.1 c -1.3,0 -2.3,-1.1 -2.3,-2.4 v -33.5 c 0,-1.3 1.1,-2.4 2.4,-2.4 h 40.2 c 1.3,0 2.4,1 2.4,2.3 l 0.9,34.7 c 0,1.3 -1.2,2.5 -2.5,2.4 z" />
	<path
   id="XMLID_388_"
   class="st7"
   d="m 229,158.2 41.1,-1.1 c 1.3,0 2.3,-1.1 2.3,-2.4 v -33.5 c 0,-1.3 -1.1,-2.4 -2.4,-2.4 h -40.2 c -1.3,0 -2.4,1 -2.4,2.3 l -0.9,34.7 c 0,1.3 1.2,2.5 2.5,2.4 z" />
	<circle
   id="XMLID_376_"
   class="st8"
   cx="306"
   cy="137.10001"
   r="17.1" />
	<circle
   id="XMLID_380_"
   class="st8"
   cx="362.5"
   cy="137.10001"
   r="17.1" />
	<circle
   id="XMLID_372_"
   class="st8"
   cx="249.5"
   cy="137.10001"
   r="17.1" />
	<path
   id="XMLID_392_"
   class="st0"
   d="m 450.5,334.6 c 0.1,12.5 -10,22.8 -22.6,22.8 H 184.1 c -12.5,0 -22.7,-10.2 -22.6,-22.8 l 0.7,-72.5 c 0.1,-12.4 10.2,-22.3 22.6,-22.3 h 242.5 c 12.4,0 22.4,10 22.6,22.3 z" />
	<circle
   id="XMLID_364_"
   class="st4"
   cx="421.5"
   cy="519.70001"
   r="13.2" />
	<path
   id="XMLID_394_"
   class="st5"
   d="m 440.5,335.3 c 0.1,8.1 -6.5,14.7 -14.6,14.7 H 186 c -8.1,0 -14.6,-6.6 -14.6,-14.7 l 0.7,-72.5 c 0.1,-8 6.6,-14.4 14.6,-14.4 h 238.5 c 8,0 14.5,6.4 14.6,14.4 z" />
	<circle
   id="XMLID_375_"
   class="st4"
   cx="306"
   cy="137.10001"
   r="13.8" />
	<circle
   id="XMLID_382_"
   class="st4"
   cx="362.5"
   cy="137.10001"
   r="13.8" />
	<path
   id="XMLID_401_"
   class="st0"
   d="m 397.1,115.2 c -0.4,-5.6 -4.6,-10.2 -10.1,-11.3 -12.4,-2.4 -39.5,-6.4 -81,-6.4 -41.5,0 -68.6,4 -81,6.4 -5.5,1.1 -9.6,5.7 -10.1,11.3 l -3.8,49.1 c -0.1,0.9 0.2,1.8 0.8,2.4 0.6,0.7 1.5,1 2.3,1 h 91.8 91.7 c 0.9,0 1.7,-0.4 2.3,-1 0.6,-0.6 0.9,-1.5 0.8,-2.4 z m 1.8,50.5 c -0.3,0.3 -0.8,0.5 -1.2,0.5 H 306 214.3 c -0.5,0 -0.9,-0.2 -1.2,-0.5 -0.3,-0.4 -0.5,-0.8 -0.4,-1.3 l 3.8,-49.1 c 0.4,-4.9 4,-9 8.9,-9.9 12.4,-2.4 39.3,-6.4 80.7,-6.4 41.4,0 68.3,4 80.7,6.4 4.8,0.9 8.5,5 8.9,9.9 l 3.8,49.1 c -0.1,0.5 -0.2,1 -0.6,1.3 z" />
	<circle
   id="XMLID_386_"
   class="st4"
   cx="249.5"
   cy="137.10001"
   r="13.8" />
	<circle
   id="XMLID_377_"
   class="st0"
   cx="341"
   cy="69"
   r="8" />
	<circle
   id="XMLID_419_"
   class="st4"
   cx="190.5"
   cy="519.70001"
   r="13.2" />
	<path
   id="XMLID_378_"
   class="st0"
   d="m 502.3,390.7 c -27.8,-26.2 -58.9,-21.1 -59.2,-21.1 h -0.2 l -2.5,4.3 H 306 171.7 l -2.5,-4.3 H 169 c -0.3,0 -31.4,-5.1 -59.2,21.1 -24,22.6 -42.7,73.4 -49.4,95.1 0.1,0.2 0.3,0.5 0.6,0.7 6.6,-21.3 25.3,-72.6 49.4,-95.2 26.5,-24.9 55.9,-21.3 58.4,-20.9 l 2.6,4.4 H 306 440.7 l 2.6,-4.4 c 2.5,-0.4 31.9,-4 58.4,20.9 24.1,22.6 42.8,73.9 49.4,95.2 0.2,-0.2 0.4,-0.5 0.6,-0.7 -6.8,-21.6 -25.4,-72.5 -49.4,-95.1 z" />
	<g
   id="XMLID_174_">
		<path
   id="XMLID_395_"
   class="st1"
   d="M 356,538.7 H 256 c -2.6,0 -4.7,-2.1 -4.7,-4.7 v -28.5 c 0,-2.6 2.1,-4.7 4.7,-4.7 h 100 c 2.6,0 4.7,2.1 4.7,4.7 V 534 c 0,2.6 -2.1,4.7 -4.7,4.7 z M 256,502.8 c -1.5,0 -2.7,1.2 -2.7,2.7 V 534 c 0,1.5 1.2,2.7 2.7,2.7 h 100 c 1.5,0 2.7,-1.2 2.7,-2.7 v -28.5 c 0,-1.5 -1.2,-2.7 -2.7,-2.7 z" />
	</g>
	<circle
   id="XMLID_359_"
   class="st6"
   cx="383.29999"
   cy="520.40002"
   r="13.2" />
	<circle
   id="XMLID_421_"
   class="st6"
   cx="228.7"
   cy="520.40002"
   r="13.2" />
	<path
   id="XMLID_424_"
   class="st0"
   d="m 120.2,261.7 c -0.1,-5.1 -4.1,-9.2 -9.2,-9.6 -5.2,-0.4 -12.8,-0.8 -19.5,-0.8 -4,0 -7.8,2.5 -8.2,6.1 -2.1,20.1 -7.3,69.2 -9.3,90.4 -0.2,1.8 0.4,3.5 1.6,4.9 1.2,1.3 4,2.4 5.8,2.4 l 13.7,0.4 c 0.1,0 0.2,0 0.3,0 3.2,0 6.3,-1.3 8.5,-3.6 3.3,-3.5 8.2,-9 12.1,-15.7 2.3,-3.9 3.6,-8.3 3.7,-12.8 0.4,-11 1.1,-39.1 0.5,-61.7 z M 76.7,351 c -0.9,-1 -1.1,-1.9 -1,-3 2,-21.8 7.6,-74.7 9.3,-90.4 0.2,-1.3 1,-2.2 2.1,-2.8 l -2.8,97.8 -2.7,-0.1 c -1.1,0 -3.8,-0.3 -4.9,-1.5 z m 40.6,-27.7 c -0.1,4.1 -1.3,8.1 -3.4,11.6 -3.8,6.4 -8.5,11.8 -11.7,15.2 -1.8,1.9 -4.3,2.9 -7,2.9 l -8.9,-0.3 2.9,-98.6 c 0.9,-0.2 1.7,-0.3 2.4,-0.3 0.1,0 0.2,0 0.3,0 6.4,0 13.8,0.4 19,0.8 3.8,0.3 6.7,3.4 6.8,7.2 0.6,22.5 -0.1,50.5 -0.4,61.5 z" />
	<circle
   id="XMLID_362_"
   class="st9"
   cx="152.8"
   cy="517.90002"
   r="8.1999998" />
	<circle
   id="XMLID_367_"
   class="st9"
   cx="459.29999"
   cy="517.90002"
   r="8.1999998" />
	<path
   id="XMLID_429_"
   class="st10"
   d="m 505.3,538.3 c -52.5,2.9 -182.6,3.7 -199.3,3.7 -16.7,0 -146.7,-0.7 -199.3,-3.7 -30.1,-1.7 -40.6,-6.4 -44.2,-9.8 0,0.4 0.1,0.9 0.1,1.3 0,0.5 0.1,1 0.1,1.4 5.4,3.8 17.6,7.6 43.9,9 22.3,1.2 58.6,2.1 94.2,2.7 l 2.9,128.9 3,-0.1 -2.8,-127.7 102.1,0.8 102.1,-0.8 -2.8,127.8 3,0.1 2.9,-128.9 c 35.6,-0.6 71.9,-1.4 94.2,-2.7 26.2,-1.5 38.4,-5.3 43.9,-9 0.1,-0.5 0.1,-1 0.1,-1.4 0,-0.4 0.1,-0.9 0.1,-1.3 -3.6,3.4 -14.2,8.1 -44.2,9.7 z" />
	<g
   id="XMLID_361_">
		<path
   id="XMLID_366_"
   class="st5"
   d="m 306,671.5 c -151.6,0 -188.4,-5.9 -197,-8.2 v 3.1 c 4.8,1.2 13,2.3 24.1,3.4 23.7,2.2 72.9,4.8 172.9,4.8 100,0 149.3,-2.6 172.9,-4.8 11.1,-1 19.3,-2.2 24.1,-3.4 v -3.1 c -8.6,2.3 -45.4,8.2 -197,8.2 z" />
		<path
   id="XMLID_369_"
   class="st5"
   d="m 465.9,723.8 -3.8,7.3 c -1,1.9 -2.8,3 -4.9,3.1 -23,0.8 -102.1,3.3 -151.2,3.3 -49.1,0 -128.2,-2.6 -151.2,-3.3 -2.1,-0.1 -3.9,-1.3 -4.9,-3.1 l -3.8,-7.3 c -1.3,-2.6 -3.9,-4.4 -6.8,-4.7 -6.5,-0.7 -21.3,-2.4 -30.3,-4.7 v 3.1 c 9.3,2.2 23.6,3.9 30,4.6 1.9,0.2 3.6,1.4 4.5,3.1 l 3.8,7.3 c 1.4,2.8 4.3,4.6 7.5,4.7 23.1,0.8 102.1,3.3 151.3,3.3 49.2,0 128.3,-2.6 151.3,-3.3 3.2,-0.1 6,-1.9 7.5,-4.7 l 3.8,-7.3 c 0.9,-1.7 2.6,-2.9 4.5,-3.1 6.3,-0.7 20.6,-2.4 30,-4.6 v -3.1 c -9.1,2.3 -23.8,4 -30.3,4.7 -3.1,0.3 -5.7,2.1 -7,4.7 z" />
	</g>
	<circle
   id="XMLID_400_"
   class="st0"
   cx="271"
   cy="69"
   r="8" />
<path
   d="m 267.10611,520.05878 q 0,-0.752 0.16,-1.456 0.176,-0.704 0.544,-1.248 0.368,-0.56 0.96,-0.88 0.592,-0.336 1.44,-0.336 0.848,0 1.44,0.336 0.592,0.32 0.96,0.88 0.368,0.544 0.528,1.248 0.176,0.704 0.176,1.456 0,0.72 -0.176,1.408 -0.16,0.672 -0.528,1.216 -0.368,0.544 -0.96,0.88 -0.592,0.32 -1.44,0.32 -0.848,0 -1.44,-0.32 -0.592,-0.336 -0.96,-0.88 -0.368,-0.544 -0.544,-1.216 -0.16,-0.688 -0.16,-1.408 z m -2.512,0 q 0,1.248 0.384,2.336 0.384,1.072 1.104,1.872 0.72,0.8 1.76,1.264 1.056,0.448 2.368,0.448 1.328,0 2.368,-0.448 1.04,-0.464 1.76,-1.264 0.72,-0.8 1.104,-1.872 0.384,-1.088 0.384,-2.336 0,-1.28 -0.384,-2.368 -0.384,-1.104 -1.104,-1.92 -0.72,-0.816 -1.76,-1.28 -1.04,-0.464 -2.368,-0.464 -1.312,0 -2.368,0.464 -1.04,0.464 -1.76,1.28 -0.72,0.816 -1.104,1.92 -0.384,1.088 -0.384,2.368 z m 12.944,-5.76 v 11.424 h 2.352 v -7.648 h 0.032 l 4.752,7.648 h 2.512 v -11.424 h -2.352 v 7.664 h -0.032 l -4.768,-7.664 z m 14.36799,4.624 v -2.672 h 2.352 q 0.336,0 0.64,0.064 0.32,0.048 0.56,0.192 0.24,0.144 0.384,0.4 0.144,0.256 0.144,0.656 0,0.72 -0.432,1.04 -0.432,0.32 -1.104,0.32 z m -2.512,-4.624 v 11.424 h 5.536 q 0.768,0 1.488,-0.192 0.736,-0.192 1.296,-0.592 0.576,-0.4 0.912,-1.024 0.336,-0.64 0.336,-1.504 0,-1.072 -0.528,-1.824 -0.512,-0.768 -1.568,-1.072 0.768,-0.368 1.152,-0.944 0.4,-0.576 0.4,-1.44 0,-0.8 -0.272,-1.344 -0.256,-0.544 -0.736,-0.864 -0.48,-0.336 -1.152,-0.48 -0.672,-0.144 -1.488,-0.144 z m 2.512,9.472 v -3.136 h 2.736 q 0.816,0 1.312,0.384 0.496,0.368 0.496,1.248 0,0.448 -0.16,0.736 -0.144,0.288 -0.4,0.464 -0.256,0.16 -0.592,0.24 -0.336,0.064 -0.704,0.064 z m 10.76801,-3.712 q 0,-0.752 0.16,-1.456 0.176,-0.704 0.544,-1.248 0.368,-0.56 0.96,-0.88 0.592,-0.336 1.44,-0.336 0.848,0 1.44,0.336 0.592,0.32 0.96,0.88 0.368,0.544 0.528,1.248 0.176,0.704 0.176,1.456 0,0.72 -0.176,1.408 -0.16,0.672 -0.528,1.216 -0.368,0.544 -0.96,0.88 -0.592,0.32 -1.44,0.32 -0.848,0 -1.44,-0.32 -0.592,-0.336 -0.96,-0.88 -0.368,-0.544 -0.544,-1.216 -0.16,-0.688 -0.16,-1.408 z m -2.512,0 q 0,1.248 0.384,2.336 0.384,1.072 1.104,1.872 0.72,0.8 1.76,1.264 1.056,0.448 2.368,0.448 1.328,0 2.368,-0.448 1.04,-0.464 1.76,-1.264 0.72,-0.8 1.104,-1.872 0.384,-1.088 0.384,-2.336 0,-1.28 -0.384,-2.368 -0.384,-1.104 -1.104,-1.92 -0.72,-0.816 -1.76,-1.28 -1.04,-0.464 -2.368,-0.464 -1.312,0 -2.368,0.464 -1.04,0.464 -1.76,1.28 -0.72,0.816 -1.104,1.92 -0.384,1.088 -0.384,2.368 z m 15.824,1.248 1.488,-4.192 h 0.032 l 1.44,4.192 z m 0.24,-7.008 -4.32,11.424 h 2.528 l 0.896,-2.544 h 4.272 l 0.864,2.544 h 2.608 l -4.272,-11.424 z m 10.35199,5.168 v -3.216 h 2.752 q 0.864,0 1.296,0.384 0.432,0.368 0.432,1.2 0,0.864 -0.432,1.248 -0.432,0.384 -1.296,0.384 z m -2.512,-5.168 v 11.424 h 2.512 v -4.464 h 2.512 q 0.944,0 1.36,0.416 0.416,0.416 0.544,1.312 0.096,0.688 0.144,1.44 0.048,0.752 0.256,1.296 h 2.512 q -0.176,-0.24 -0.272,-0.576 -0.08,-0.352 -0.128,-0.736 -0.032,-0.384 -0.048,-0.752 -0.016,-0.368 -0.032,-0.64 -0.032,-0.432 -0.128,-0.864 -0.08,-0.432 -0.272,-0.784 -0.192,-0.368 -0.496,-0.624 -0.304,-0.272 -0.768,-0.4 v -0.032 q 0.96,-0.384 1.376,-1.12 0.432,-0.736 0.432,-1.744 0,-0.656 -0.24,-1.216 -0.224,-0.576 -0.672,-1.008 -0.432,-0.432 -1.056,-0.672 -0.608,-0.256 -1.376,-0.256 z m 14.064,9.312 v -7.2 h 1.792 q 0.928,0 1.552,0.272 0.64,0.256 1.024,0.752 0.384,0.496 0.544,1.2 0.176,0.688 0.176,1.552 0,0.944 -0.24,1.6 -0.24,0.656 -0.64,1.072 -0.4,0.4 -0.912,0.576 -0.512,0.176 -1.056,0.176 z m -2.512,-9.312 v 11.424 h 4.928 q 1.312,0 2.272,-0.432 0.976,-0.448 1.616,-1.216 0.656,-0.768 0.976,-1.824 0.32,-1.056 0.32,-2.304 0,-1.424 -0.4,-2.48 -0.384,-1.056 -1.088,-1.76 -0.688,-0.704 -1.648,-1.056 -0.944,-0.352 -2.048,-0.352 z"
   id="text1"
   style="font-weight:bold;font-size:16px;font-family:'Helvetica Neue';-inkscape-font-specification:'Helvetica Neue Bold';text-align:center;text-anchor:middle;fill:#ffffff;stroke-width:1.88976;stroke-linecap:round"
   aria-label="ONBOARD" /><path
   style="font-weight:bold;font-size:24px;font-family:'Helvetica Neue';-inkscape-font-specification:'Helvetica Neue Bold';text-align:center;text-anchor:middle;fill:#315ace;stroke-width:1.88976;stroke-linecap:round"
   d="m 289.84919,478.09453 -5.976,8.976 h 4.224 l 3.816,-5.928 3.744,5.928 h 4.488 l -5.976,-8.952 5.496,-8.184 h -4.128 l -3.48,5.472 -3.36,-5.472 h -4.368 z m 15.576,-0.096 v -5.136 h 2.928 q 0.648,0 1.248,0.096 0.6,0.096 1.056,0.384 0.456,0.264 0.72,0.768 0.288,0.504 0.288,1.32 0,0.816 -0.288,1.32 -0.264,0.504 -0.72,0.792 -0.456,0.264 -1.056,0.36 -0.6,0.096 -1.248,0.096 z m -3.768,-8.064 v 17.136 h 3.768 v -6.144 h 3.96 q 1.608,0 2.736,-0.456 1.128,-0.48 1.824,-1.248 0.72,-0.768 1.032,-1.752 0.336,-1.008 0.336,-2.04 0,-1.056 -0.336,-2.04 -0.312,-0.984 -1.032,-1.752 -0.696,-0.768 -1.824,-1.224 -1.128,-0.48 -2.736,-0.48 z m 19.8,3.168 v 13.968 h 3.768 v -13.968 h 5.136 v -3.168 h -14.04 v 3.168 z"
   id="text2"
   aria-label="XPT" /></g>
</svg>
