<svg xmlns="http://www.w3.org/2000/svg" viewBox="0 0 128 128">
  <rect width="128" height="128" rx="28" fill="#31130a" />
  <path d="M24 98c12-14 25-20 40-20s28 6 40 20" fill="none" stroke="#f59e0b" stroke-linecap="round" stroke-width="6" />
  <path d="M41 20h46c8 0 14 6 14 14v38c0 18-14 33-32 33H59C41 105 27 90 27 72V34c0-8 6-14 14-14Z" fill="#c97316" />
  <path d="M35 40c0-8 6-14 14-14h30c8 0 14 6 14 14v13H35Z" fill="#fde68a" />
  <rect x="38" y="68" width="52" height="9" rx="4.5" fill="#4a1d0d" opacity=".85" />
  <circle cx="46" cy="94" r="6" fill="#fff7ed" />
  <circle cx="82" cy="94" r="6" fill="#fff7ed" />
</svg>
