<svg enable-background="new 0 0 731.1 795.3" version="1.1" viewBox="0 0 731.1 795.3" xml:space="preserve" xmlns="http://www.w3.org/2000/svg"><defs><filter color-interpolation-filters="sRGB"><feGaussianBlur result="fbSourceGraphic" stdDeviation="5 5"/><feColorMatrix in="fbSourceGraphic" result="fbSourceGraphicAlpha" values="0 0 0 -1 0 0 0 0 -1 0 0 0 0 -1 0 0 0 0 1 0"/><feGaussianBlur in="fbSourceGraphic" result="blur" stdDeviation="5 5"/></filter><filter id="filter2313" x="-.13588" y="-.48433" width="1.2718" height="1.9687" color-interpolation-filters="sRGB"><feGaussianBlur stdDeviation="6.6411833"/></filter></defs><path d="m365.2 571.8-186.8 0.9-59.4 29-40.6 74.1-4.5 119c8-0.2 13.2-0.2 18.8-0.4s8.5-21.2 8.5-21.2l8.5-88.9 43.3-74.1 90.2-17.4 122.4-0.8 122.4 0.8 90.2 17.4 43.3 74.1 8.5 88.9s2.9 21 8.5 21.2 10.7 0.2 18.8 0.4l-4.5-119-40.6-74.1-59.4-29-186.8-0.9h-0.8z" fill="#191919"/><g><path d="m361.03 583.78c-4.2633 0-61.841 0.0491-89.749 1.1641-27.912 1.1187-74.581 4.0176-89.99 6.6973-15.405 2.6835-31.483 7.1433-41.752 18.312-10.273 11.165-25.232 35.947-29.476 49.122-4.2406 13.175-9.6 41.979-11.607 63.64-2.0107 21.657-3.3676 42.308-5.8091 52.917-1.2019 5.2309-3.7077 10.893-5.9338 13.742-3.8022 4.868-5.2271 5.2384 0.80126 5.2384 6.0283 0 191.37 0.89576 199.18 0.67276 7.816-0.22677 11.168-2.6835 14.74-7.5931 3.5716-4.9134 8.7194-6.7464 29.48-7.1433 7.4192-0.1474 31.722-0.068 34.658-0.10204 2.9367 0.0302 27.239-0.0454 34.654 0.0983 20.761 0.40063 25.912 2.2337 29.48 7.1471 3.5754 4.9134 6.9279 7.3701 14.74 7.5931 7.816 0.22298 193.16-0.67276 199.18-0.67276s4.6035-0.37039 0.8013-5.2384c-2.2262-2.8498-4.732-8.5115-5.9339-13.742-2.4416-10.609-3.7984-31.257-5.8091-52.917-2.0107-21.657-7.3663-50.464-11.611-63.64-4.2406-13.175-19.2-37.958-29.473-49.122s-26.347-15.632-41.756-18.312c-15.405-2.6797-62.075-5.5786-89.987-6.6973-27.912-1.115-85.489-1.1641-89.752-1.1641-2.0976 0-3.4507 0.034-4.5392 0.0718a123.36 123.36 0 0 0-4.543-0.0756z" fill="#282828" stroke-width="3.7795"/></g><path d="m345.9 2.1c-60.7 0.1-162.1 4.3-178.9 8.7-20.7 5.4-47.5 42.4-47.5 42.4l-3 43.3 249.1-3.5 249.1 3.5-3-43.3s-26.8-37-47.5-42.4c-16.9-4.4-118.3-8.6-178.9-8.7-7.3 0-13.8 0-19.7 0.2-5.9-0.1-12.4-0.2-19.7-0.2z" fill="#292929"/><path d="m117.6 476.6-93.2 45.1-10.8 35.5 22.8 145.5s0.6 38.5 4.8 56.5 19.8 37.9 34.9 35.5c15-2.4 17.4-40.9 21-87.2s27.7-104 67.3-114.8c37.4-10.2 159.2-11.3 200.7-10.4h0.8c41.5-0.9 163.2 0.2 200.7 10.4 39.7 10.8 63.7 68.5 67.3 114.9 3.6 46.3 6 84.8 21 87.2s30.7-17.4 34.9-35.5c4.2-18 4.8-56.5 4.8-56.5l22.9-145.5-10.8-35.5-93.2-45.1-31.9 13.2-215.7-5.9h-0.8l-215.7 5.9-31.8-13.3z" fill="#282828"/><path d="m246.5 79.8c-60.3 0-119.2 0.5-124 1.7-9.6 2.4-6.6 176.8-6.6 176.8l26.9 224.8c14.5 16.6 20.8 19.6 25.1 21.7 3.8 1.9 162.5-2.1 197.8-3 35.3 0.9 194 4.9 197.8 3 4.3-2.1 10.6-5.1 25.1-21.7l26.9-224.8s3-174.4-6.6-176.8c-4.8-1.2-63.7-1.7-124-1.7-47.8 0-95.9 0.3-119.1 0.7-23.4-0.4-71.5-0.7-119.3-0.7z" fill="#212121"/><path d="m246.5 79.8c-42.5 0-83.9 0.2-106.5 0.8-0.9 8-1.5 19.6-2.4 37.5-2.4 46.9-0.9 113 1.8 147.9 7.1 91.9 19.8 129.5 23.8 144 3.2 11.7 5.4 13.8 19.2 13.8 13.4 0 122.3 0.3 183.2-0.2 60.9 0.5 169.8 0.2 183.2 0.2 13.8 0 16-2.1 19.2-13.8 4-14.5 16.7-52.1 23.8-144 2.7-34.9 4.2-101 1.8-147.9-0.9-18-1.6-29.6-2.4-37.5-22.7-0.6-64.1-0.8-106.5-0.8-47.8 0-95.9-0.6-119.1-0.6s-71.3 0.6-119.1 0.6z" fill="#1B1B1B"/><path d="m132.1 75.3c5.5-24.2 19.1-44.6 31.5-56.6 12.3-11.9 8.5-12.8 3-16.6s-14-1.7-16.8-0.9-13.4 39.5-13.4 39.5l-4.3 34.6zm-54.9 443.1c-40 23.4-62.1 40.4-48.5 111.8s18.7 100.3 20.8 115.2 1.3 17.4-2.6 20.4c-3.8 3-4.3-1.7-7.7-13.6-3.2-11.8-26.2-142-28.3-153.4-2.1-11.5 7.2-42.9 7.2-42.9l20-28.1 39.1-9.4z" fill="#A3A3A3"/><path d="m365.2 488.6c-11.8 0-201 1.5-204.9 2.1s-8.4 2.4-6.9 7.5c1.4 4.8 17.7 69.6 25.3 91.5 47.6-7.5 149.2-8.4 186.5-7.5h0.8c37.3-0.8 138.9 0 186.5 7.5 7.6-21.9 23.9-86.8 25.3-91.5 1.5-5.1-3-6.9-6.9-7.5s-193.1-2.1-204.9-2.1h-0.8z" fill="#FFB412"/><path d="m130.6 502.4c30.8-8.6 38.2-12.9 31-46s-24.7-104.9-30.7-172.9c-6-67.9-6-151.5 1.2-195.4s10.8-60.7 18-75.8c7.2-15 1.8-12-9-8.4s-75.2 35.5-93.2 66.7c-18 31.3-31.9 119.1-36.1 184-4.2 65-13.8 194.9-11.4 252s6.6 75.8 10.8 94.4 1.8 5.4 6.6-18.6c4.8-24.1 15.6-41.5 40.3-53.5 24.7-12.1 54.9-21.6 72.5-26.5z" fill="#B2B2B2"/><path d="m111 18.7c-23 13-51.9 32.5-63.1 51.9-3.8 6.5-7.3 15.5-10.7 26.2-2.5 70.9-5.1 193.8-5.6 233-0.6 51.1 1.8 64.3 7.2 77.6 5.4 13.2 26.5 10.8 43.3 10.2s23.5-186.4 22.3-220.1c-1.1-31.4-1.7-115.4 6.6-178.8z" fill="#49B3F1"/><path d="m73.7 168.7c2.4-29.6 10.2-31.3 17.4-31.3s11.4 1.2 12.6 37.3 5.4 118.5 12 162.4 14.4 81.2 18 98.6 0.6 29.5-21 26.5-35.5-15-38.5-41.5c-2.9-26.5-5.2-193.8-0.5-252z" fill="#1C1C1C"/><path d="m0 0" fill="#1C1C1C"/><path d="m289.5 175.9c-50.8 0-106.3 0.2-120.6 1.2-26.5 1.8-23.3-0.2-23.1 16.1 0.2 9.5 0.6 49.8 3.9 86.8 3.4 38.3 13.1 75.9 14.3 82 2.4 12 4.2 15.6 16.2 15.6 11.5 0 139 0.4 185 0.3h0.8c46 0.1 173.5-0.3 185-0.3 12 0 13.8-3.6 16.2-15.6 1.2-6 10.9-43.7 14.3-82 3.3-36.9 3.7-77.2 3.9-86.8 0.3-16.2 3.4-14.3-23.1-16.1-22.8-1.6-150-1.1-196.4-1.2h-76.4z" fill="#343434"/><path d="m218.9 85c-18.6 0-31.6 0.1-33.6 0.2-8.1 0.4-9.8 0.9-10.2 7.2-0.4 6.4-2.1 49.3-1.3 58.7 0.9 9.4 1.7 10.2 11.1 10.2 9.2 0 108.8-0.4 180.4 0h0.8c71.6-0.4 171.2 0 180.4 0 9.4 0 10.2-0.9 11.1-10.2 0.9-9.4-0.9-52.3-1.3-58.7s-2.1-6.8-10.2-7.2c-2-0.1-15.1-0.2-33.6-0.2-43.1 0-114.5-0.5-146.7-0.5-32.4-0.1-103.8 0.4-146.9 0.5z" fill="#282828"/><path d="m205.2 95.8c-11.5 0.4-12.8 4.7-12.8 10.2v55.3c18 0 105.4-0.4 172.7 0h0.8c67.3-0.4 154.8 0 172.7 0v-55.3c0-5.5-1.3-9.8-12.8-10.2-56.9-0.4-104.4-0.8-160.2-0.8-52.1 0.1-104.9-0.8-160.4 0.8z" fill="#3B3B3B"/><path d="m0 0" fill="#3B3B3B"/><path d="m361 583.8c-4.3 0-61.8 0-89.7 1.2-27.9 1.1-74.6 4-90 6.7-0.6 0.1-1.1 0.2-1.7 0.3 3.3 12.4 4.8 14.6 7.1 22 2.5 8.2 8.8 15.2 24.6 15.2 14 0 122.2 0.5 154.2-0.7 32 1.2 140.3 0.7 154.2 0.7 15.8 0 22.1-6.9 24.6-15.2 2.3-7.4 3.8-9.5 7.1-22-0.6-0.1-1.1-0.2-1.7-0.3-15.4-2.7-62.1-5.6-90-6.7s-85.5-1.2-89.8-1.2c-2.1 0-3.5 0-4.5 0.1-0.9-0.1-2.3-0.1-4.4-0.1z" fill="#FFB412"/><path d="m254 489.5h-3.5v0.3c1.6 9.5 6.5 20.4 13.3 24.3s12.2 5.1 20.4 5.2c8 0.2 74.8 0 81.4 0s73.5 0.2 81.4 0c8.2-0.2 13.6-1.3 20.4-5.2s11.7-14.8 13.3-24.3v-0.3h-3.5c-0.4 3-1.3 8.9-6 15.7-5.2 7.6-16.3 10.1-22.1 10.6-5.7 0.5-70.3 0-83.1 0h-0.8c-12.8 0-77.4 0.5-83.1 0-5.8-0.5-16.9-3-22.1-10.6-4.7-6.9-5.6-12.7-6-15.7z" fill="#4E3D21"/><path d="m0 0" fill="#4E3D21"/><path d="m98.9 374.6c11.6 0.2 14.7-4.2 14.7-11.8s-3.9-16.7-13.7-16.3-13.8 5.1-14.4 13.6c-0.7 8.9 4 14.3 13.4 14.5zm2.5 44.9c11.6 0.2 14.7-4.2 14.7-11.8s-1.7-17.7-13.4-17.9c-9.8-0.2-14.1 6.7-14.7 15.2-0.7 8.9 4 14.3 13.4 14.5z" fill="#D2D2D2"/><path d="m80.8 158.3c2.1 0 2.6 1.4 2.6 2.8s-0.8 3.6-2.9 3.5c-2.2 0-3.3-1.2-3.3-3.2-0.1-2.1 1.2-3.2 3.6-3.1zm-0.8 8.8c2.1 0 2.6 1.4 2.6 2.8s-0.8 3.6-2.9 3.5c-2.2 0-3.3-1.2-3.3-3.2-0.1-2 1.2-3.1 3.6-3.1zm-0.8 8.1c2 0 2.5 1.4 2.5 2.7s-0.7 3.4-2.8 3.4-3.2-1.2-3.2-3.1c0-2.1 1.2-3.1 3.5-3zm-0.1 7.6c2 0 2.5 1.4 2.5 2.7s-0.8 3.5-2.9 3.4c-2.1 0-3.2-1.2-3.2-3.2-0.1-1.9 1.2-3 3.6-2.9zm-0.6 7.6c2 0 2.5 1.3 2.5 2.6s-0.7 3.4-2.8 3.3c-2.1 0-3.1-1.2-3.2-3.1-0.1-1.8 1.1-2.8 3.5-2.8zm-0.4 7.5c1.9 0 2.4 1.3 2.4 2.6s-0.7 3.3-2.7 3.3-3.1-1.1-3.1-3c-0.1-2 1.1-3 3.4-2.9zm-0.4 8.1c1.9 0 2.4 1.3 2.4 2.6s-0.7 3.3-2.7 3.3-3.1-1.1-3.1-3c-0.1-2 1.1-3 3.4-2.9zm-0.2 8.5c1.9 0 2.4 1.3 2.4 2.6s-0.7 3.3-2.7 3.3-3.1-1.1-3.1-3 1.1-3 3.4-2.9zm-0.1 7.7c1.9 0 2.4 1.3 2.4 2.6s-0.7 3.3-2.7 3.3-3.1-1.1-3.1-3c-0.1-1.9 1.1-3 3.4-2.9zm-0.4 8.1c1.9 0 2.4 1.3 2.4 2.6s-0.7 3.3-2.7 3.3-3.1-1.1-3.1-3c-0.1-2 1.1-3 3.4-2.9zm0 7.8c1.9 0 2.4 1.3 2.4 2.6s-0.7 3.3-2.7 3.3-3.1-1.1-3.1-3 1.1-3 3.4-2.9zm-0.2 7.8c1.9 0 2.4 1.3 2.4 2.6s-0.7 3.3-2.7 3.3-3.1-1.1-3.1-3c-0.1-1.9 1.1-3 3.4-2.9zm-0.1 8.3c1.9 0 2.4 1.3 2.4 2.6s-0.7 3.3-2.7 3.3-3.1-1.1-3.1-3c0-2 1.1-3 3.4-2.9zm0.1 7.9c1.9 0 2.4 1.3 2.4 2.6s-0.7 3.3-2.7 3.3-3.1-1.1-3.1-3c-0.1-1.9 1.1-3 3.4-2.9zm0 8.1c1.9 0 2.4 1.3 2.4 2.6s-0.7 3.3-2.7 3.3-3.1-1.1-3.1-3 1.1-3 3.4-2.9zm-0.3 8.1c1.9 0 2.4 1.3 2.4 2.6s-0.7 3.3-2.7 3.3-3.1-1.1-3.1-3c-0.1-1.9 1.1-3 3.4-2.9zm0 8.1c1.9 0 2.4 1.3 2.4 2.6s-0.7 3.3-2.7 3.3-3.1-1.1-3.1-3c-0.1-2 1.1-3 3.4-2.9zm0 7.3c1.9 0 2.4 1.3 2.4 2.6s-0.7 3.3-2.7 3.3-3.1-1.1-3.1-3c0-2 1.1-3 3.4-2.9zm-0.1 8.2c1.9 0 2.4 1.3 2.4 2.6s-0.7 3.3-2.7 3.3-3.1-1.1-3.1-3c-0.1-1.9 1.1-2.9 3.4-2.9zm0.2 7.9c1.9 0 2.4 1.3 2.4 2.6s-0.7 3.3-2.7 3.3-3.1-1.1-3.1-3c-0.1-1.9 1.1-3 3.4-2.9zm0.2 7.9c1.9 0 2.4 1.3 2.4 2.6s-0.7 3.3-2.7 3.3-3.1-1.1-3.1-3c-0.1-1.9 1.1-3 3.4-2.9zm-0.1 8.3c1.9 0 2.4 1.3 2.4 2.6s-0.7 3.3-2.7 3.3-3.1-1.1-3.1-3c0-2 1.1-3 3.4-2.9zm0.1 7.9c1.9 0 2.4 1.3 2.4 2.6s-0.7 3.3-2.7 3.3-3.1-1.1-3.1-3 1.1-3 3.4-2.9zm0.1 7.5c1.9 0 2.4 1.3 2.4 2.6s-0.7 3.3-2.7 3.3-3.1-1.1-3.1-3 1.1-3 3.4-2.9zm0.4 8.2c1.9 0 2.4 1.3 2.4 2.6s-0.7 3.3-2.7 3.3-3.1-1.1-3.1-3c-0.1-1.9 1.1-3 3.4-2.9zm0.4 8.9c1.9 0 2.4 1.3 2.4 2.6s-0.7 3.3-2.7 3.3-3.1-1.1-3.1-3c0-2 1.1-3 3.4-2.9zm0.2 9.6c1.9 0 2.4 1.3 2.4 2.6s-0.7 3.3-2.7 3.3-3.1-1.1-3.1-3c0-2 1.1-3 3.4-2.9zm0.3 10.2c1.9 0 2.4 1.3 2.4 2.6s-0.7 3.3-2.7 3.3-3.1-1.1-3.1-3c-0.1-2 1.1-3 3.4-2.9zm0.4 9.6c1.9 0 2.4 1.3 2.4 2.6s-0.7 3.3-2.7 3.3-3.1-1.1-3.1-3 1.1-3 3.4-2.9zm0.4 9.2c1.9 0 2.4 1.3 2.4 2.6s-0.7 3.3-2.7 3.3-3.1-1.1-3.1-3c-0.1-1.9 1.1-3 3.4-2.9zm0.5 10c1.9 0 2.4 1.3 2.4 2.6s-0.7 3.3-2.7 3.3-3.1-1.1-3.1-3c-0.1-2 1.1-3 3.4-2.9zm1.1 8.8c1.9 0 2.3 1.3 2.3 2.5s-0.7 3.2-2.6 3.1c-1.9 0-2.9-1.1-3-2.9 0-1.8 1.1-2.8 3.3-2.7zm1.4 9.1c1.9 0 2.4 1.3 2.4 2.5s-0.7 3.2-2.7 3.2-3-1.1-3-2.9c-0.1-1.8 1-2.8 3.3-2.8zm2.7 9.2c1.8 0 2.3 1.2 2.3 2.4s-0.7 3.2-2.6 3.1c-1.9 0-2.9-1.1-2.9-2.9-0.1-1.7 1-2.7 3.2-2.6zm4.2 7.6c1.7 0 2.2 1.2 2.2 2.3s-0.6 3-2.5 2.9c-1.8 0-2.7-1-2.8-2.7 0-1.7 1.1-2.6 3.1-2.5zm7.2 4.7c1.7 0 2.2 1.2 2.2 2.3s-0.6 3-2.5 2.9c-1.8 0-2.7-1-2.8-2.7 0-1.6 1-2.6 3.1-2.5zm9.1 4.2c1.7 0 2.2 1.2 2.2 2.3s-0.6 3-2.5 2.9c-1.8 0-2.7-1-2.8-2.7 0-1.7 1-2.6 3.1-2.5zm9.1 2.6c1.7 0 2.2 1.2 2.2 2.3s-0.6 3-2.5 2.9c-1.8 0-2.7-1-2.8-2.7 0-1.6 1-2.5 3.1-2.5zm9.7 0.5c1.7 0 2.2 1.2 2.2 2.3s-0.6 3-2.5 2.9c-1.8 0-2.7-1-2.8-2.7 0-1.7 1-2.6 3.1-2.5z" fill="#C6C6C6"/><path d="m599.1 75.3c-5.5-24.2-19.1-44.6-31.5-56.6-12.3-11.9-8.5-12.8-3-16.6s14-1.7 16.8-0.9 13.4 39.5 13.4 39.5l4.3 34.6zm54.8 443.1c40 23.4 62.1 40.4 48.5 111.8s-18.7 100.3-20.8 115.2-1.3 17.4 2.6 20.4c3.8 3 4.3-1.7 7.7-13.6s26.4-142 28.5-153.5-7.2-42.9-7.2-42.9l-20-28.1-39.3-9.3z" fill="#A3A3A3"/><path d="m600.6 502.4c-30.8-8.6-38.2-12.9-31-46s24.7-104.9 30.7-172.9c6-67.9 6-151.5-1.2-195.4s-10.8-60.7-18-75.8c-7.2-15-1.8-12 9-8.4s75.2 35.5 93.2 66.7 31.9 119.1 36.1 184 13.8 194.8 11.4 252c-2.4 57.1-6.6 75.8-10.8 94.4s-1.8 5.4-6.6-18.6c-4.8-24.1-15.6-41.5-40.3-53.5-24.7-12.1-54.9-21.6-72.5-26.5z" fill="#B2B2B2"/><path d="m620.2 18.7c23 13 51.9 32.5 63.1 51.9 3.8 6.5 7.3 15.5 10.7 26.2 2.5 70.9 5.1 193.8 5.6 233 0.6 51.1-1.8 64.3-7.2 77.6-5.4 13.2-26.5 10.8-43.3 10.2s-23.5-186.4-22.3-220.1c1.1-31.4 1.7-115.4-6.6-178.8z" fill="#49B3F1"/><path d="m657.4 168.7c-2.4-29.6-10.2-31.3-17.4-31.3s-11.4 1.2-12.6 37.3-5.4 118.5-12 162.4-14.4 81.2-18 98.6-0.6 29.5 21 26.5 35.5-15 38.5-41.5c2.9-26.5 5.3-193.8 0.5-252z" fill="#1C1C1C"/><path d="m0 0" fill="#1C1C1C"/><path d="m632.2 374.6c-11.6 0.2-14.7-4.2-14.7-11.8s3.9-16.7 13.7-16.3 13.8 5.1 14.4 13.6c0.7 8.9-4 14.3-13.4 14.5zm-2.4 44.9c-11.6 0.2-14.7-4.2-14.7-11.8s1.7-17.7 13.4-17.9c9.8-0.2 14.1 6.7 14.7 15.2 0.7 8.9-4 14.3-13.4 14.5z" fill="#D2D2D2"/><path d="m650.3 158.3c-2.1 0-2.6 1.4-2.6 2.8s0.8 3.6 2.9 3.5c2.2 0 3.3-1.2 3.3-3.2 0.1-2.1-1.1-3.2-3.6-3.1zm0.8 8.8c-2.1 0-2.6 1.4-2.6 2.8s0.8 3.6 2.9 3.5c2.2 0 3.3-1.2 3.3-3.2 0.1-2-1.1-3.1-3.6-3.1zm0.8 8.1c-2 0-2.5 1.4-2.5 2.7s0.7 3.4 2.8 3.4 3.2-1.2 3.2-3.1c0.1-2.1-1.1-3.1-3.5-3zm0.2 7.6c-2 0-2.5 1.4-2.5 2.7s0.7 3.5 2.9 3.4c2.1 0 3.2-1.2 3.2-3.2 0-1.9-1.2-3-3.6-2.9zm0.6 7.6c-2 0-2.5 1.3-2.5 2.6s0.7 3.4 2.8 3.3c2.1 0 3.1-1.2 3.2-3.1 0-1.8-1.2-2.8-3.5-2.8zm0.4 7.5c-1.9 0-2.4 1.3-2.4 2.6s0.7 3.3 2.7 3.3 3.1-1.1 3.1-3c0-2-1.1-3-3.4-2.9zm0.4 8.1c-1.9 0-2.4 1.3-2.4 2.6s0.7 3.3 2.7 3.3 3.1-1.1 3.1-3c0-2-1.1-3-3.4-2.9zm0.1 8.5c-1.9 0-2.4 1.3-2.4 2.6s0.7 3.3 2.7 3.3 3.1-1.1 3.1-3c0.1-1.9-1.1-3-3.4-2.9zm0.2 7.7c-1.9 0-2.4 1.3-2.4 2.6s0.7 3.3 2.7 3.3 3.1-1.1 3.1-3-1.1-3-3.4-2.9zm0.3 8.1c-1.9 0-2.4 1.3-2.4 2.6s0.7 3.3 2.7 3.3 3.1-1.1 3.1-3c0.1-2-1.1-3-3.4-2.9zm0 7.8c-1.9 0-2.4 1.3-2.4 2.6s0.7 3.3 2.7 3.3 3.1-1.1 3.1-3c0.1-1.9-1.1-3-3.4-2.9zm0.3 7.8c-1.9 0-2.4 1.3-2.4 2.6s0.7 3.3 2.7 3.3 3.1-1.1 3.1-3-1.1-3-3.4-2.9zm0 8.3c-1.9 0-2.4 1.3-2.4 2.6s0.7 3.3 2.7 3.3 3.1-1.1 3.1-3c0.1-2-1.1-3-3.4-2.9zm0 7.9c-1.9 0-2.4 1.3-2.4 2.6s0.7 3.3 2.7 3.3 3.1-1.1 3.1-3-1.1-3-3.4-2.9zm-0.1 8.1c-1.9 0-2.4 1.3-2.4 2.6s0.7 3.3 2.7 3.3 3.1-1.1 3.1-3c0.1-1.9-1.1-3-3.4-2.9zm0.3 8.1c-1.9 0-2.4 1.3-2.4 2.6s0.7 3.3 2.7 3.3 3.1-1.1 3.1-3c0.1-1.9-1.1-3-3.4-2.9zm0 8.1c-1.9 0-2.4 1.3-2.4 2.6s0.7 3.3 2.7 3.3 3.1-1.1 3.1-3c0.1-2-1.1-3-3.4-2.9zm0 7.3c-1.9 0-2.4 1.3-2.4 2.6s0.7 3.3 2.7 3.3 3.1-1.1 3.1-3c0.1-2-1.1-3-3.4-2.9zm0.2 8.2c-1.9 0-2.4 1.3-2.4 2.6s0.7 3.3 2.7 3.3 3.1-1.1 3.1-3-1.1-2.9-3.4-2.9zm-0.3 7.9c-1.9 0-2.4 1.3-2.4 2.6s0.7 3.3 2.7 3.3 3.1-1.1 3.1-3c0.1-1.9-1.1-3-3.4-2.9zm-0.1 7.9c-1.9 0-2.4 1.3-2.4 2.6s0.7 3.3 2.7 3.3 3.1-1.1 3.1-3-1.1-3-3.4-2.9zm0 8.3c-1.9 0-2.4 1.3-2.4 2.6s0.7 3.3 2.7 3.3 3.1-1.1 3.1-3c0.1-2-1.1-3-3.4-2.9zm-0.1 7.9c-1.9 0-2.4 1.3-2.4 2.6s0.7 3.3 2.7 3.3 3.1-1.1 3.1-3c0.1-1.9-1.1-3-3.4-2.9zm-0.1 7.5c-1.9 0-2.4 1.3-2.4 2.6s0.7 3.3 2.7 3.3 3.1-1.1 3.1-3c0.1-1.9-1.1-3-3.4-2.9zm-0.3 8.2c-1.9 0-2.4 1.3-2.4 2.6s0.7 3.3 2.7 3.3 3.1-1.1 3.1-3-1.1-3-3.4-2.9zm-0.5 8.9c-1.9 0-2.4 1.3-2.4 2.6s0.7 3.3 2.7 3.3 3.1-1.1 3.1-3c0.1-2-1.1-3-3.4-2.9zm-0.2 9.6c-1.9 0-2.4 1.3-2.4 2.6s0.7 3.3 2.7 3.3 3.1-1.1 3.1-3c0.1-2-1.1-3-3.4-2.9zm-0.3 10.2c-1.9 0-2.4 1.3-2.4 2.6s0.7 3.3 2.7 3.3 3.1-1.1 3.1-3c0.1-2-1.1-3-3.4-2.9zm-0.4 9.6c-1.9 0-2.4 1.3-2.4 2.6s0.7 3.3 2.7 3.3 3.1-1.1 3.1-3c0.1-1.9-1.1-3-3.4-2.9zm-0.3 9.2c-1.9 0-2.4 1.3-2.4 2.6s0.7 3.3 2.7 3.3 3.1-1.1 3.1-3-1.1-3-3.4-2.9zm-0.6 10c-1.9 0-2.4 1.3-2.4 2.6s0.7 3.3 2.7 3.3 3.1-1.1 3.1-3c0.1-2-1.1-3-3.4-2.9zm-1 8.8c-1.9 0-2.3 1.3-2.3 2.5s0.7 3.2 2.6 3.1c1.9 0 2.9-1.1 3-2.9 0-1.8-1.1-2.8-3.3-2.7zm-1.4 9.1c-1.9 0-2.4 1.3-2.4 2.5s0.7 3.2 2.7 3.2 3-1.1 3-2.9-1.1-2.8-3.3-2.8zm-2.8 9.2c-1.8 0-2.3 1.2-2.3 2.4s0.7 3.2 2.6 3.1c1.9 0 2.9-1.1 2.9-2.9 0.1-1.7-1-2.7-3.2-2.6zm-4.2 7.6c-1.7 0-2.2 1.2-2.2 2.3s0.6 3 2.5 2.9c1.8 0 2.7-1 2.8-2.7 0-1.7-1-2.6-3.1-2.5zm-7.1 4.7c-1.7 0-2.2 1.2-2.2 2.3s0.6 3 2.5 2.9c1.8 0 2.7-1 2.8-2.7 0-1.6-1.1-2.6-3.1-2.5zm-9.1 4.2c-1.7 0-2.2 1.2-2.2 2.3s0.6 3 2.5 2.9c1.8 0 2.7-1 2.8-2.7 0-1.7-1.1-2.6-3.1-2.5zm-9.1 2.6c-1.7 0-2.2 1.2-2.2 2.3s0.6 3 2.5 2.9c1.8 0 2.7-1 2.8-2.7 0-1.6-1.1-2.5-3.1-2.5zm-9.8 0.5c-1.7 0-2.2 1.2-2.2 2.3s0.6 3 2.5 2.9c1.8 0 2.7-1 2.8-2.7 0-1.7-1-2.6-3.1-2.5z" fill="#C6C6C6"/><g transform="matrix(1.1134 0 0 1.1134 -41.438 -14.52)" fill="#94e00e" filter="url(#filter2313)" stroke-width="1.1058" style="mix-blend-mode:normal"><path d="m312.33 125.37h13.004v-13.226h5.5291v31.847h-5.5291v-13.668h-13.004v13.668h-5.4848v-31.847h5.4848z"/><path d="m349.8 144.52q-6.5464 0-10.085-4.379t-3.5386-12.075q0-7.6964 3.5386-12.075t10.085-4.379q4.5559 0 7.5638 2.1232t4.2463 5.8387l-5.1752 1.9905q-0.61925-2.3001-2.2559-3.6271-1.5924-1.3712-4.379-1.3712-3.9809 0-6.0156 3.0078-1.9905 2.9636-1.9905 8.4926t1.9905 8.5369q2.0347 2.9636 6.0156 2.9636 2.7866 0 4.379-1.327 1.6366-1.3712 2.2559-3.6713l5.1752 1.9905q-1.2385 3.7155-4.2463 5.8387t-7.5638 2.1232z"/><path d="m380.97 128.38h0.0885l7.8734-16.233h6.7233v31.847h-5.4848v-20.789l0.0442-1.6808h-0.0885l-6.9445 14.199h-4.3348l-7.033-14.199h-0.0885l0.0442 1.6808v20.789h-5.4848v-31.847h6.7676z"/><path d="m400.04 112.14h24.107v4.954h-9.2888v26.893h-5.5291v-26.893h-9.2888z"/></g><g fill="#94e00e" stroke-width="1.2312"><path d="m306.31 125.06h14.479v-14.725h6.1559v35.458h-6.1559v-15.217h-14.479v15.217h-6.1067v-35.458h6.1067z"/><path d="m348.02 146.39q-7.2886 0-11.228-4.8755-3.9398-4.8755-3.9398-13.445t3.9398-13.445q3.9398-4.8755 11.228-4.8755 5.0725 0 8.4213 2.3639t4.7277 6.5006l-5.7619 2.2161q-0.68947-2.5609-2.5116-4.0383-1.7729-1.5267-4.8755-1.5267-4.4323 0-6.6976 3.3488-2.2161 3.2996-2.2161 9.4555t2.2161 9.5047q2.2654 3.2996 6.6976 3.2996 3.1026 0 4.8755-1.4774 1.8222-1.5267 2.5116-4.0875l5.7619 2.2161q-1.3789 4.1368-4.7277 6.5006t-8.4213 2.3639z"/><path d="m382.73 128.41h0.0985l8.766-18.074h7.4856v35.458h-6.1067v-23.146l0.0493-1.8714h-0.0985l-7.7318 15.808h-4.8262l-7.8303-15.808h-0.0985l0.0492 1.8714v23.146h-6.1067v-35.458h7.5348z"/><path d="m403.96 110.34h26.84v5.5157h-10.342v29.942h-6.1559v-29.942h-10.342z"/></g></svg>
