<svg xmlns="http://www.w3.org/2000/svg" viewBox="0 0 96 96">
  <rect width="96" height="96" rx="22" fill="#06243a" />
  <path d="M17 73c10-10 20-15 31-15s21 5 31 15" fill="none" stroke="#67e8f9" stroke-linecap="round" stroke-width="5" />
  <path d="M30 16h36c8 0 14 6 14 14v25c0 16-13 29-29 29h-6c-16 0-29-13-29-29V30c0-8 6-14 14-14Z" fill="#0ea5e9" />
  <rect x="23" y="27" width="50" height="16" rx="6" fill="#e0f2fe" />
  <rect x="28" y="51" width="40" height="12" rx="6" fill="#083344" opacity=".85" />
  <circle cx="34" cy="73" r="4.5" fill="#fff" />
  <circle cx="62" cy="73" r="4.5" fill="#fff" />
</svg>
