<?xml version="1.0" encoding="utf-8"?>
<!-- Generator: Adobe Illustrator 27.6.1, SVG Export Plug-In . SVG Version: 6.00 Build 0)  -->
<svg version="1.1"
	 id="svg178" xmlns:inkscape="http://www.inkscape.org/namespaces/inkscape" xmlns:svg="http://www.w3.org/2000/svg" xmlns:sodipodi="http://sodipodi.sourceforge.net/DTD/sodipodi-0.dtd"
	 xmlns="http://www.w3.org/2000/svg" xmlns:xlink="http://www.w3.org/1999/xlink" x="0px" y="0px" viewBox="0 0 2037.1 1874.7"
	 style="enable-background:new 0 0 2037.1 1874.7;" xml:space="preserve">
<style type="text/css">
	.st0{fill:#EEBA00;}
	.st1{fill:#222222;}
	.st2{fill:#303030;}
	.st3{fill:#0C0900;}
	.st4{fill:#DFAA02;}
	.st5{fill:#B8B8B8;}
	.st6{fill:#DEDEDE;}
	.st7{fill:#2775AB;}
	.st8{fill:#3F3F3F;}
	.st9{fill:#8F8F8F;}
	.st10{fill:#DBDBDB;}
	.st11{fill:#FF992A;}
</style>
<sodipodi:namedview  bordercolor="#eeeeee" borderopacity="1" id="namedview180" inkscape:current-layer="svg178" inkscape:cx="1135.6135" inkscape:cy="1115.1074" inkscape:deskcolor="#505050" inkscape:pagecheckerboard="0" inkscape:pageopacity="0" inkscape:showpageshadow="0" inkscape:window-height="2050" inkscape:window-maximized="1" inkscape:window-width="3840" inkscape:window-x="3828" inkscape:window-y="-12" inkscape:zoom="0.70710678" pagecolor="#505050" showgrid="false" showguides="false">
	</sodipodi:namedview>
<path id="path128" class="st0" d="M84.2,322.6c-1,21.8-6.8,84.3-15.4,189.3S7.2,1084.5,1.1,1228c-6.1,143.4,12.1,343.5,56.6,486.9
	s42.4,122.2,51.5,139.4s22.2,19.2,40.4,20.2s403-2,424.3-1c21.2,1,25.3,0,28.3-16.2s18.2-20.2,84.9-21.2s657.6-4,703.1-3
	s60.6,10.1,66.7,24.2s7.1,17.2,37.4,16.2s396-5,421.2-5c25.3,0,28.3,5,36.4-21.2c8.1-26.3,76.8-227.3,83.8-363.7
	c7.1-136.4-12.1-429.3-22.2-555.6s-65.5-612.3-69.9-636.3c-4.8-22.7-32.1,19.8-32.1,19.8l-956.6,1.3L84.2,322.6L84.2,322.6z"/>
<path id="path130" class="st0" d="M984.5,0.5c295.7-3.2,869.2,4,918.6,152.9c43.6,131.4,42.7,150.4,42.7,163.2
	c0,12.9-9.8,12.5-47,12.5c-37.1,0-728.6-7.1-928.6-5.7s-842.9,11.4-867.1,12.9c-24.3,1.4-20-7.1-14.3-38.6
	c5.7-31.4,28.6-210,188.6-237.1C437.4,33.4,750.2,3,984.5,0.5L984.5,0.5z"/>
<path id="path132" sodipodi:nodetypes="ccscscscsc" class="st1" d="M176.8,1170.2c306.8,2.5,1111.5,15,1699.5,3.9
	c91.8-3.5,79.7-76.9,73.8-157.1c-7.4-99.9-19.1-237.6-38.6-399.3c-11-88.2-39.9-112-209.9-111.3s-384.2,0.2-691.3,3
	c-307.1,2.9-667.5-3.1-733.7-1.6S142,567.6,142.3,652.8c-13.5,149.5-26.9,285.6-32.2,377.9S94.7,1167.6,176.8,1170.2z"/>
<path id="path134" class="st2" d="M167.4,1057.7c0.7,54.3,19.3,81.4,79.3,82.9c60,1.4,392.1,0,463.6-2.9
	c71.4-2.9,116.4-13.6,117.1-88.6s-2.1-382.9-5-433.6s-25.7-66.4-101.4-67.1s-383.6-1.4-445,0s-71.4,33.6-77.9,114.3
	C191.7,743.4,166.7,1012.7,167.4,1057.7L167.4,1057.7z M1220.4,632c2-67.7,29.3-91.9,98-93.9s406.1-1,456.6,2s80.8,26.3,89.9,103
	c9.1,76.8,35.4,362.6,38.4,410.1s-26.3,88.9-100,88.9s-412.1,2-477.8,3s-90.9-22.2-97-92.9S1219.4,688.5,1220.4,632z"/>
<path id="path136-3" sodipodi:nodetypes="cscscsc" class="st3" d="M1641.9,331.6c-52.5,3.2-65.5,36.3-67.5,60s22.5,66.7,65.8,68.6
	c43.4,2,101.4-0.8,128.2-1.5s58.8-26.1,59.2-62.3c0.4-36.3-27.6-65.1-63.5-66.3S1660.9,330.5,1641.9,331.6z"/>
<path id="path136-3-9" sodipodi:nodetypes="cscscsc" class="st3" d="M270.9,343.3c-52.5,3.2-65.5,36.3-67.5,60s22.5,66.7,65.8,68.6
	c43.4,2,101.4-0.8,128.2-1.5s58.8-26.1,59.2-62.3c0.4-36.3-27.6-65.1-63.5-66.3S289.9,342.2,270.9,343.3L270.9,343.3z"/>
<path id="path136-1" sodipodi:nodetypes="cscscsc" class="st4" d="M1647.5,336.4c-47.5,2.9-59.3,32.9-61.1,54.3
	c-1.8,21.4,20.4,60.4,59.6,62.1c39.3,1.8,91.8-0.7,116.1-1.4c24.3-0.7,53.2-23.6,53.6-56.4c0.4-32.9-25-58.9-57.5-60
	S1664.7,335.4,1647.5,336.4z"/>
<path id="path136" sodipodi:nodetypes="cscscsc" class="st4" d="M278.1,348.7c-47.5,2.9-59.3,32.9-61.1,54.3s20.4,60.4,59.6,62.1
	c39.3,1.8,91.8-0.7,116.1-1.4c24.3-0.7,53.2-23.6,53.6-56.4c0.4-32.9-25-58.9-57.5-60S295.3,347.7,278.1,348.7L278.1,348.7z"/>
<path id="path138" class="st5" d="M1703.8,339.8c32.1,1.1,52.5,25,53.9,54.6s-17.1,57.9-51.4,56.8s-58.6-23.9-59.6-55.4
	C1645.6,364.4,1673.4,339.1,1703.8,339.8z"/>
<path id="path140" class="st6" d="M1702.4,353.7c22.2,0.4,40.4,17.5,41.4,41.1c1.1,23.6-13.2,40.7-33.9,43.2s-44.6-10-47.5-42.9
	C1659.5,362.3,1682.4,353.4,1702.4,353.7L1702.4,353.7z"/>
<path id="path142" class="st5" d="M385.4,405.5c-0.6,32.2-24.2,52.9-53.8,54.7c-29.6,1.9-58.1-16.3-57.6-50.6
	c0.6-34.3,23.7-57.6,55.1-59.1S385.6,375.1,385.4,405.5z"/>
<path id="path144" class="st6" d="M371.4,404.3c0,22.2-16.9,40.6-40.4,42c-23.6,1.4-40.9-12.6-43.7-33.3s9.3-44.8,42.1-48.1
	S371.5,384.3,371.4,404.3z"/>
<path id="path150" class="st7" d="M1930.2,1222.5c17.9,0.4,20.3-1.2,7.6,20.1s-107,200.6-132.5,251.8
	c-25.5,51.2-159.7,299.2-164.9,311.1s-8.6,14.9-21,14.5c-12.4-0.4-287.1,3.8-299.8,3s-12,0-3.1-14.5c9-14.5,297.4-559.9,304.6-571.4
	c7.2-11.5,10.3-13.3,20.7-14.1C1652,1222.2,1914.3,1222.5,1930.2,1222.5L1930.2,1222.5z M1367.2,1225.4c21.5-0.8,22.3,0.8,9.8,17.4
	s-141,229-169.5,275.7c-28.6,46.7-178.2,280.3-182.5,287.7c-4.3,7.4-7.1,7.1-13.3,0.8s-179-278.6-205.2-321.9
	c-26.3-43.3-143.7-235.1-150.7-245.4c-7.1-10.3-2.7-12.8,5.5-13.2C669.4,1225.7,1346.1,1224.2,1367.2,1225.4L1367.2,1225.4z
	 M398,1223.5c14.1-0.4,17.2,1.2,22.7,14.8s99.1,200.2,131.5,260.6c32.4,60.4,165.9,295.4,171.4,306s6.2,17.4-7.6,17.9
	c-13.8,0.4-281.2,0.9-291.2,1.2s-11.4-3.8-19.3-14.4s-150.1-267-177.9-316.6c-27.9-49.8-121.8-244.9-129.1-255.9
	c-7.2-11-5.9-12.7,5.9-14.1C116.1,1221.8,384.6,1223,398,1223.5L398,1223.5z"/>
<path id="path160-0-3-9" sodipodi:nodetypes="csscc" class="st8" d="M1828.5,1644.1c91.7,0.4,92.7,1.1,92.7,84.1
	c0,83.3,0.2,83.3-86.4,83.5c-87.3,0.2-87.8,0.4-88.1-84.7C1747.9,1644.4,1747.8,1645.2,1828.5,1644.1z"/>
<path id="path160-0-9" sodipodi:nodetypes="csscc" class="st8" d="M1640.1,1641.7c91.7,0.4,92.7,1.1,92.7,84.1
	c0,83.3,0.2,83.3-86.4,83.5c-87.3,0.2-87.8,0.4-88.1-84.7C1559.5,1642,1559.4,1642.8,1640.1,1641.7L1640.1,1641.7z"/>
<path id="path154" class="st9" d="M1648,1657.4c-52.3,0.3-73,39.6-72.3,77.8s35.2,60.8,71.7,60.2c36.5-0.7,73.6-23.3,74.3-68.1
	C1722.4,1682.6,1686.2,1658.8,1648,1657.4z"/>
<path id="path156" class="st10" d="M1836.7,1657.8c-45.4,1-68.1,36.8-68.8,73.7c-0.7,36.8,26.5,64.7,62.6,65.4s71.9-19.6,72.6-63.3
	C1903.8,1689.8,1881.1,1657.1,1836.7,1657.8L1836.7,1657.8z"/>
<path id="path160-0-3" sodipodi:nodetypes="csscc" class="st8" d="M394.4,1643.6c91.7,0.4,92.7,1.1,92.7,84.1
	c0,83.3,0.2,83.3-86.4,83.5c-87.3,0.2-87.8,0.4-88.1-84.7C313.7,1643.9,313.7,1644.8,394.4,1643.6L394.4,1643.6z"/>
<path id="path158" class="st9" d="M398.1,1801.9c39.4-1,73-26.8,72-74.5s-38-71.1-70.6-71.1s-76.4,29.2-74,81.3
	C328,1789.8,366,1801.4,398.1,1801.9L398.1,1801.9z"/>
<path id="path160-0" sodipodi:nodetypes="csscc" class="st8" d="M211,1641.2c91.7,0.4,92.7,1.1,92.7,84.1c0,83.3,0.2,83.3-86.4,83.5
	c-87.3,0.2-87.8,0.4-88.1-84.7C130.3,1641.5,130.3,1642.4,211,1641.2L211,1641.2z"/>
<path id="path160" class="st10" d="M215.1,1655.4c52.6,0,76.9,34.6,78.4,71.1s-22.4,70.6-73,70.6s-74.5-31.2-74.5-71.6
	C145.9,1685.1,173.2,1654.4,215.1,1655.4z"/>
<rect id="rect4321" x="215" y="1029" class="st8" width="512" height="100"/>
<g id="g176" transform="translate(-279.25496,891.3841)">
	<path id="path164" class="st11" d="M585.2,225.4c-9.5,0-16.8-3.2-21.9-9.5s-7.7-15.1-7.7-26.2s2.6-19.9,7.7-26.2
		c5.1-6.3,12.4-9.5,21.9-9.5c6.6,0,12.1,1.5,16.4,4.6c4.4,3.1,7.4,7.3,9.2,12.7l-11.2,4.3c-0.9-3.3-2.5-6-4.9-7.9
		c-2.3-2-5.5-3-9.5-3c-5.8,0-10.1,2.2-13.1,6.5c-2.9,4.3-4.3,10.4-4.3,18.4s1.4,14.2,4.3,18.5c2.9,4.3,7.3,6.4,13.1,6.4
		c4,0,7.2-1,9.5-2.9c2.4-2,4-4.6,4.9-8l11.2,4.3c-1.8,5.4-4.9,9.6-9.2,12.7C597.3,223.9,591.8,225.5,585.2,225.4L585.2,225.4z"/>
	<path id="path166" class="st11" d="M648.8,225.4c-9.5,0-16.8-3.2-21.9-9.5s-7.7-15.1-7.7-26.2s2.6-19.9,7.7-26.2
		c5.1-6.3,12.4-9.5,21.9-9.5s16.8,3.2,21.9,9.5s7.7,15.1,7.7,26.2s-2.6,19.9-7.7,26.2S658.2,225.5,648.8,225.4L648.8,225.4z
		 M648.8,214.7c5.8,0,10.1-2.1,13-6.4c2.9-4.4,4.4-10.5,4.4-18.5s-1.5-14.1-4.4-18.4c-2.9-4.4-7.2-6.5-13-6.5s-10.1,2.2-13.1,6.5
		c-2.9,4.3-4.3,10.4-4.3,18.4c0,8,1.4,14.2,4.3,18.5C638.6,212.6,643,214.7,648.8,214.7L648.8,214.7z"/>
	<path id="path168" class="st11" d="M721.8,190.4h0.2l17.1-35.2h14.6v69.1h-11.9v-45.1l0.1-3.6h-0.2l-15.1,30.8h-9.4l-15.3-30.8
		h-0.2l0.1,3.6v45.1h-11.9v-69.1h14.7L721.8,190.4z"/>
	<path id="path170" class="st11" d="M813.2,165.9h-34.3v18h27.9v10.8h-27.9v18.9h34.8v10.8H767v-69.1h46.2L813.2,165.9z"/>
	<path id="path172" class="st11" d="M864.5,202.3h0.2l-0.1-3.9v-43.2h11.9v69.1h-13l-27.2-47.1h-0.2l0.1,3.9v43.2h-11.9v-69.1h13
		L864.5,202.3z"/>
	<path id="path174" class="st11" d="M917.7,225.4c-9.5,0-16.8-3.2-21.9-9.5s-7.7-15.1-7.7-26.2s2.6-19.9,7.7-26.2
		c5.1-6.3,12.4-9.5,21.9-9.5c6.6,0,12.1,1.5,16.4,4.6c4.4,3.1,7.4,7.3,9.2,12.7l-11.2,4.3c-0.9-3.3-2.5-6-4.9-7.9
		c-2.3-2-5.5-3-9.5-3c-5.8,0-10.1,2.2-13.1,6.5c-2.9,4.3-4.3,10.4-4.3,18.4s1.4,14.2,4.3,18.5c2.9,4.3,7.3,6.4,13.1,6.4
		c4.9,0,8.5-1.4,11-4.3c2.5-2.9,3.7-7,3.7-12.3h-14.8v-10.8h26.7v37h-9.6l-0.9-6h-0.2c-1.9,2.3-4.2,4.1-6.9,5.3
		C924.1,224.8,921.1,225.5,917.7,225.4L917.7,225.4z"/>
</g>
</svg>
