<svg xmlns="http://www.w3.org/2000/svg" viewBox="0 0 96 96">
  <rect width="96" height="96" rx="22" fill="#1f1630" />
  <path d="M18 73c9-10 19-15 30-15s21 5 30 15" fill="none" stroke="#f9a8d4" stroke-linecap="round" stroke-width="5" />
  <path d="M30 17h36c9 0 14 6 14 14v24c0 16-13 29-29 29h-6c-16 0-29-13-29-29V31c0-8 5-14 14-14Z" fill="#ec4899" />
  <rect x="24" y="28" width="48" height="18" rx="7" fill="#fdf2f8" />
  <rect x="30" y="55" width="36" height="8" rx="4" fill="#831843" opacity=".82" />
  <circle cx="34" cy="72" r="4.5" fill="#fff" />
  <circle cx="62" cy="72" r="4.5" fill="#fff" />
</svg>
