<svg enable-background="new 0 0 1501.3 1761.1" version="1.1" viewBox="0 0 1501.3 1761.1" xml:space="preserve" xmlns="http://www.w3.org/2000/svg"><defs><rect x="388.73" y="136.28" width="675.26" height="171.22"/></defs><path d="m6.8 1391.8c0.6 52.3-3 108.2 9 191.2s24.1 141.9 27.7 158.7 13.2 18.6 27.7 19.2c14.4 0.6 234.5-1.8 256.8-3s22.3-6.6 22.9-22.3c0.6-15.6-1.2-74 24.7-149.7 25.9-75.8 63.7-128.7 103.4-133.5s202.6-7.2 284.4-8.4 240.5 2.4 278.4 6 60.7 16.2 83 72.2c22.3 55.9 49.9 150.9 51.1 189.4s3.6 43.9 22.9 43.9c19.2 0 220.5-2.4 242.2-3 21.6-0.6 24.1-1.2 30.1-27.1s27.6-181.2 28.8-246.1 2-85.8 1.4-98.4-83.6-4.2-83.6-4.2l-286.8-67.9-162.2 11-642.9-17.9-319 89.9z" fill="#CFCFCF"/><path d="m1108.2 1311.5c28.3 30.3 40.9 49.5 70.2 71.7s50.5 20.2 82.3 20.7 190.4-4 206.1-4-8.6-197.5-8.6-197.5-337.8 47.5-350 109.1zm-1049.3 97c28.3-0.2 172.5 1.2 213.2 0.4 40.7-0.7 58.2-11.8 75.4-25 17.1-13.2 47.1-46.8 52.5-53.2s5.7-8.2 6.4-14.3-125.4-55.7-125.4-55.7l-195.7-69.3-40.7 7.9-1.4 117.1 15.7 92.1z" fill="#565656"/><path d="m740.3 0c244.3 1.4 512.9 51.4 650 130s92.9 65.7 101.4 302.9c8.6 237.1 8 916.4 9.1 957.9 0.2 7 0.2 8.4-6.6 8.7-8.6 0.4-28.5 0.5-35.5 0.5-7.1 0-7.3-0.8-7.5-8.8-0.6-15.7-3.6-141.2-2.6-163.5 1-22.2-13.1-21.2-31.3-13.1s-217.2 77.8-313.1 112.1c-96 34.3-160.6 66.7-349.5 71.7s-255.6-40.4-358.6-76.8-292.9-98-311.1-103c-18.2-5.1-20.2 0-20.2 17.2s2.8 142.7 2.8 161.9c0 9.6 0.5 11-5.9 11-11.2 0.1-35-0.3-47.4 0.1-5.4 0.1-6.1-0.8-7.1-19.9-1-19.3-8.1-1019.9-7.1-1105.7s74.8-150.5 160.6-179.8c85.9-29.3 225.9-97.7 579.6-103.4z" fill="#F8CB0F"/><path d="m94 404.4c-2-72.7-4-82.8 107.1-103s337.4-56.6 549.5-58.6 448.5 32.3 545.5 50.5 117.2 26.3 115.2 119.2 2 428.3 2 481.8 5 90.9-98 92.9-292.9 2-407.1 3c-114.1 1-662.7 4-723.3 5s-89.9-11.1-91.9-69.7c-2-58.5-1-459.5 1-521.1z" fill="#272727"/><path d="m413.3 367c-1-59.6 4-54.5 48.5-57.6s546.5-5 583.9-4 40.4 6.1 41.4 57.6 0 54.5-30.3 56.6c-30.3 2-572.8 2-605.1 3-32.4 1-35.4-1-38.4-55.6zm-293 124.3c2-41.4 11.1-42.4 45.5-43.4s368.7-7.1 587.9-9.1 549.5 4 583.9 3c34.3-1 43.4 5.1 44.4 33.3 1 28.3 2 358.6 3 390.9s-2 44.4-56.6 63.6c-54.5 19.2-90.9 31.3-137.4 31.3s-406.1-3-503.1-1-345.5 6.1-373.8 7.1-43.4 0-105.1-18.2c-61.6-18.2-85.9-28.3-86.9-57.6-0.8-29.2-3.8-353.5-1.8-399.9z" fill="#4F4F4F"/><path d="m294.1 414.5c51.5 0 47.5-36.4 45.5-52.5-2-16.2-8.1-38.4-44.4-41.4-36.4-3-54.5 30.3-53.5 50.5 0.8 20.2 4.9 44.4 52.4 43.4zm910.1-6.1c45.5 1 51.5-25.3 51.5-46.5s-15.2-45.5-48.5-46.5-49.5 28.3-49.5 49.5c0 21.3 13.2 43.5 46.5 43.5z" fill="#DEDEDE"/><path d="m90 989.8c0.5-21.2 3-14.6 20.7-3s40.4 15.2 84.9 13.6c44.4-1.5 573.8-2 705.6-4s409.6-2 444-3c34.3-1 45.5-6.6 58.6-19.7s12.1-8.6 12.6 14.6 1.5 157.6 1.5 170.2-2 16.7-16.7 21.2c-14.6 4.5-342.3 120.3-412.3 144.6s-142.9 32.9-230 34.3-154.3-8.6-262.9-44.3-320-110-358.6-120-44.3-17.1-44.3-42.9c0.1-25.7-3.4-126.1-3.1-161.6z" fill="#228BC9"/><path d="m74.6 1387.5c0.7 12.1 0.4 14.3 16.8 14.3s145 1.1 176.4-0.7 57.9-6.1 75.7-22.9c17.9-16.8 22.9-19.6 28.6-27.5s7.1-25-17.5-33.9-254.6-86.8-266.4-89.6c-11.8-2.9-15-4.6-15 10s0.3 131.4 1.4 150.3z" fill="#3E3E3E"/><path d="m81.8 1379.3c-0.4 11.4 1.4 11.8 15.4 12.5 13.9 0.7 138.6 3.2 168.9 1.8 30.4-1.4 53.6-6.4 66.8-17.5s24.3-21.4 29.3-28.6c5-7.1 5-21.1-22.1-28.9-27.1-7.9-234.3-78.9-246.1-81.4s-12.1-1.8-12.5 10c-0.5 11.7-0.1 118.9 0.3 132.1z" fill="#737373"/><path d="m91.4 1317.9c1.8-31.4 22.5-43.9 46.8-44.3s49.3 17.1 48.9 51.8c-0.4 34.6-22.9 44.3-48.2 44.3s-47.1-9-47.5-51.8z" fill="#DBDBDB"/><path d="m194.3 1339.3c1.8-31.4 22.5-43.9 46.8-44.3s49.3 17.1 48.9 51.8c-0.4 34.6-22.9 44.3-48.2 44.3-25.4 0-47.2-9-47.5-51.8z" fill="#838383"/><path d="m1155.2 1351.7c-12.6-15.7-14.6-31.8 7.8-40.4 22.5-8.6 258.1-90.7 267.4-94.5s11.4-3.5 11.9 9.8c0.5 13.4 1 143.9 1.3 154.3s0 12.4-10.1 12.9-177.8 2.3-199.3 1.5c-21.4-0.7-50.2-7.5-79-43.6z" fill="#3E3E3E"/><path d="m1164.3 1351.7c-13.9-17.7-14.6-26 6.3-34.3 21-8.3 232.6-83.3 246.7-87.4 14.1-4 16.4-3.3 17.2 12.9s1 120.2 1 130.6-2 11.4-11.1 11.9-164.9 2.5-187.4 1.3c-22.4-1.5-48.5-8-72.7-35z" fill="#737373"/><path d="m1271.1 1381.2c36.1-0.3 49-14.9 49.2-48.7s-28.8-46-51.5-45.5c-23 0.5-44.7 25-44.4 51.8 0.3 26.7 19.7 42.6 46.7 42.4z" fill="#838383"/><path d="m1374.7 1360c36.1-0.3 49-14.9 49.2-48.7s-28.8-46-51.5-45.5c-23 0.5-44.7 25-44.4 51.8 0.2 26.7 19.6 42.6 46.7 42.4z" fill="#DBDBDB"/><g transform="translate(155.33 175.7)" fill="#f5ffff" style="shape-inside:url(#rect882);white-space:pre"><path d="m419.93 225.62q-9.792 0-16.704-4.032-6.816-4.032-9.216-11.232l10.848-4.992q1.344 4.512 5.28 7.008t9.792 2.496q6.336 0 10.272-2.496 3.936-2.592 3.936-7.392 0-2.976-1.728-4.704-1.728-1.824-5.472-3.072-3.744-1.344-11.328-3.168-10.752-2.4-15.552-6.912-4.704-4.608-4.704-12.288 0-6.144 3.072-10.752 3.072-4.704 8.64-7.296t12.864-2.592q8.736 0 15.36 4.032t9.408 11.136l-10.848 4.8q-1.44-4.416-5.184-6.816-3.648-2.4-8.736-2.4-5.856 0-9.216 2.592-3.264 2.592-3.264 7.296 0 2.688 1.536 4.32 1.632 1.632 4.992 2.88 3.456 1.248 10.176 2.784 8.448 1.92 13.248 4.512 4.8 2.496 6.816 6.24 2.112 3.648 2.112 9.408 0 6.528-3.552 11.232-3.456 4.608-9.504 7.008t-13.344 2.4z"/><path d="m477.82 164.95v49.92h10.656v9.6h-33.216l0.096-9.6h10.656v-49.92h-10.656v-9.6h33.12v9.6z"/><path d="m544.73 166.1h-34.272v17.952h27.936v10.752h-27.936v18.912h34.848v10.752h-46.752v-69.12h46.176z"/><path d="m587.74 190.58h0.192l17.088-35.232h14.592v69.12h-11.904v-45.12l0.096-3.648h-0.192l-15.072 30.816h-9.408l-15.264-30.816h-0.192l0.096 3.648v45.12h-11.904v-69.12h14.688z"/><path d="m679.13 166.1h-34.272v17.952h27.936v10.752h-27.936v18.912h34.848v10.752h-46.752v-69.12h46.176z"/><path d="m730.4 202.48h0.192l-0.096-3.936v-43.2h11.904v69.12h-12.96l-27.168-47.136h-0.192l0.096 3.936v43.2h-11.904v-69.12h12.96z"/><path d="m779.17 225.62q-9.792 0-16.704-4.032-6.816-4.032-9.216-11.232l10.848-4.992q1.344 4.512 5.28 7.008t9.792 2.496q6.336 0 10.272-2.496 3.936-2.592 3.936-7.392 0-2.976-1.728-4.704-1.728-1.824-5.472-3.072-3.744-1.344-11.328-3.168-10.752-2.4-15.552-6.912-4.704-4.608-4.704-12.288 0-6.144 3.072-10.752 3.072-4.704 8.64-7.296t12.864-2.592q8.736 0 15.36 4.032t9.408 11.136l-10.848 4.8q-1.44-4.416-5.184-6.816-3.648-2.4-8.736-2.4-5.856 0-9.216 2.592-3.264 2.592-3.264 7.296 0 2.688 1.536 4.32 1.632 1.632 4.992 2.88 3.456 1.248 10.176 2.784 8.448 1.92 13.248 4.512 4.8 2.496 6.816 6.24 2.112 3.648 2.112 9.408 0 6.528-3.552 11.232-3.456 4.608-9.504 7.008t-13.344 2.4z"/></g></svg>
