<svg xmlns="http://www.w3.org/2000/svg" viewBox="0 0 96 96">
  <rect width="96" height="96" rx="22" fill="#201512" />
  <path d="M18 73c9-10 19-15 30-15s21 5 30 15" fill="none" stroke="#fb7185" stroke-linecap="round" stroke-width="5" />
  <path d="M31 18h34c9 0 15 6 15 15v23c0 16-13 28-28 28h-8c-15 0-28-12-28-28V33c0-9 6-15 15-15Z" fill="#ef4444" />
  <rect x="24" y="27" width="48" height="18" rx="7" fill="#fff1f2" />
  <rect x="30" y="55" width="36" height="8" rx="4" fill="#7f1d1d" opacity=".82" />
  <circle cx="34" cy="72" r="4.5" fill="#fff" />
  <circle cx="62" cy="72" r="4.5" fill="#fff" />
</svg>
