<svg xmlns="http://www.w3.org/2000/svg" viewBox="0 0 96 96">
  <rect width="96" height="96" rx="22" fill="#0f172a" />
  <path d="M18 73c9-10 19-15 30-15s21 5 30 15" fill="none" stroke="#38bdf8" stroke-linecap="round" stroke-width="5" />
  <path d="M32 18h32c7 0 12 5 12 12v24c0 15-12 27-27 27h-2c-15 0-27-12-27-27V30c0-7 5-12 12-12Z" fill="#2563eb" />
  <rect x="26" y="27" width="44" height="20" rx="7" fill="#eff6ff" />
  <rect x="31" y="56" width="34" height="8" rx="4" fill="#10203f" opacity=".82" />
  <circle cx="34" cy="72" r="4.5" fill="#fff" />
  <circle cx="62" cy="72" r="4.5" fill="#fff" />
</svg>
