<svg enable-background="new 0 0 2037.1 1874.7" version="1.1" viewBox="0 0 2037.1 1874.7" xml:space="preserve" xmlns="http://www.w3.org/2000/svg"><defs><rect x="550.37" y="136.11" width="906.76" height="118.36"/><rect x="654.92" y="146.63" width="790.37" height="101.92"/></defs><path d="m84.2 322.6c-1 21.8-6.8 84.3-15.4 189.3s-61.6 572.6-67.7 716.1c-6.1 143.4 12.1 343.5 56.6 486.9s42.4 122.2 51.5 139.4 22.2 19.2 40.4 20.2 403-2 424.3-1c21.2 1 25.3 0 28.3-16.2s18.2-20.2 84.9-21.2 657.6-4 703.1-3 60.6 10.1 66.7 24.2 7.1 17.2 37.4 16.2 396-5 421.2-5c25.3 0 28.3 5 36.4-21.2 8.1-26.3 76.8-227.3 83.8-363.7 7.1-136.4-12.1-429.3-22.2-555.6s-65.5-612.3-69.9-636.3c-4.8-22.7-32.1 19.8-32.1 19.8l-956.6 1.3-870.7 9.8z" fill="#EEBA00"/><path d="m984.5 0.5c295.7-3.2 869.2 4 918.6 152.9 43.6 131.4 42.7 150.4 42.7 163.2 0 12.9-9.8 12.5-47 12.5-37.1 0-728.6-7.1-928.6-5.7s-842.9 11.4-867.1 12.9c-24.3 1.4-20-7.1-14.3-38.6 5.7-31.4 28.6-210 188.6-237.1 160-27.2 472.8-57.6 707.1-60.1z" fill="#E7B801"/><path d="m89.5 1064.3c-1 26.3-4.5 31.3-13.1 33.8s-11.1 5-9.1 23.2 2 62.1 49.5 88.4 153 71.7 194.5 87.9c41.4 16.2 112.1 26.3 190.9 28.3s1031.4 0 1104.1-4 166.7-32.3 245.5-69.7 114.1-69.7 121.2-118.2 5-37.4-3.5-42.4c-8.6-5-7.1-2-10.1-37.4s-30.8-306.1-34.9-347.5c-4-41.4-1.4-46.9 5.8-53.4 7.1-6.4 11.4-12.9 10-40s2.9-152.1-167.1-151.4-462.9 8.6-770 11.4c-307.1 2.9-703.4-0.5-769.6 1s-113.1 32.3-125.3 97c-12.1 64.6-11.4 74.8-5.3 77 6.1 2.3 15.4 3.8 16.2 12.4s-6.8 86.4-10.9 148c-4.1 61.7-15.7 225.8-18.8 255.6z" fill="#222"/><path d="m167.4 1057.7c0.7 54.3 19.3 81.4 79.3 82.9 60 1.4 392.1 0 463.6-2.9 71.4-2.9 116.4-13.6 117.1-88.6s-2.1-382.9-5-433.6-25.7-66.4-101.4-67.1-383.6-1.4-445 0-71.4 33.6-77.9 114.3c-6.4 80.7-31.4 350-30.7 395zm1053-425.7c2-67.7 29.3-91.9 98-93.9s406.1-1 456.6 2 80.8 26.3 89.9 103c9.1 76.8 35.4 362.6 38.4 410.1s-26.3 88.9-100 88.9-412.1 2-477.8 3-90.9-22.2-97-92.9-9.1-363.7-8.1-420.2z" fill="#303030"/><path d="m373.8 348.7c32.5 0 68.9 14.3 70 57.5s-24.6 52.9-66.1 55.7c-41.4 2.9-82.5 1.8-115-0.4-32.5-2.1-42.1-29.6-42.9-56.4s15-53.2 43.2-55.7c28.3-2.5 90.1-1.4 110.8-0.7zm1274.3-10c-47.5 2.9-59.3 32.9-61.1 54.3s20.4 60.4 59.6 62.1c39.3 1.8 91.8-0.7 116.1-1.4s53.2-23.6 53.6-56.4c0.4-32.9-25-58.9-57.5-60s-93.5 0.4-110.7 1.4z" fill="#DFAA02"/><path d="m1703.8 339.8c32.1 1.1 52.5 25 53.9 54.6s-17.1 57.9-51.4 56.8-58.6-23.9-59.6-55.4c-1.1-31.4 26.7-56.7 57.1-56z" fill="#B8B8B8"/><path d="m1702.4 353.7c22.2 0.4 40.4 17.5 41.4 41.1 1.1 23.6-13.2 40.7-33.9 43.2s-44.6-10-47.5-42.9c-2.9-32.8 20-41.7 40-41.4z" fill="#DEDEDE"/><path d="m385.4 405.5c-0.6 32.2-24.2 52.9-53.8 54.7-29.6 1.9-58.1-16.3-57.6-50.6 0.6-34.3 23.7-57.6 55.1-59.1s56.5 24.6 56.3 55z" fill="#B8B8B8"/><path d="m371.4 404.3c0 22.2-16.9 40.6-40.4 42-23.6 1.4-40.9-12.6-43.7-33.3s9.3-44.8 42.1-48.1 42.1 19.4 42 39.4z" fill="#DEDEDE"/><path d="m480.9 101c0.3-15.1 2.8-17.9 18.6-18.2s999.5-6.9 1018.8-6.5c19.3 0.3 20.3 2.4 22 23.1s-0.7 174.9-1.7 188.6c-1 13.8-2.8 14.5-23.4 15.8-20.7 1.4-1009.9 8.9-1022.6 8.6s-11.4-6.9-12.7-20.7c-1.4-13.8 0.6-175.2 1-190.7z" fill="#2D2D2D"/><path d="m539.7 155.4c-0.3-16.9 2.4-17.2 14.8-17.9s903.5-4.8 914.9-4.5 15.8 1.4 15.8 20.3-1.4 75-1.7 87.1c-0.3 12-3.1 14.8-14.8 15.5s-895.9 4.1-910.4 4.1-16.5-2.4-17.2-16.2c-0.7-13.7-1.4-71.9-1.4-88.4z" fill="#3B3B3B"/><path d="m1976.1 1338.7c17.9 0.3 20.3-1 7.6 16.2s-107 161.8-132.5 203.1-159.7 241.3-164.9 250.9-8.6 12-21 11.7-287.1 3.1-299.8 2.4-12 0-3.1-11.7c9-11.7 297.4-451.6 304.6-460.9s10.3-10.7 20.7-11.4c10.2-0.6 272.5-0.3 288.4-0.3zm-652 1.4c18.9-0.7 19.6 0.7 8.6 14.5s-123.9 190.7-149 229.6-156.6 233.4-160.4 239.6-6.2 5.9-11.7 0.7-157.3-232-180.4-268.1-126.3-195.8-132.5-204.4-2.4-10.7 4.8-11c7.3-0.6 602.1-1.9 620.6-0.9zm-968.2-2.4c14.1-0.3 17.2 1 22.7 12s99.1 162.1 131.5 211 165.9 239.2 171.4 247.8 6.2 14.1-7.6 14.5c-13.8 0.3-281.2 0.7-291.2 1s-11.4-3.1-19.3-11.7-150.1-216.2-177.9-256.4c-27.9-40.3-121.8-198.3-129.1-207.2-7.2-8.9-5.9-10.3 5.9-11.4 11.7-1 280.2 0 293.6 0.4z" fill="#2775AB"/><path d="m1544.4 1656.4c0.3-15.1 1.7-19.3 20.3-19.6s373.1-3.1 385.8-2.4 14.8 1.4 11.7 15.5-41 139.4-43.7 148.3c-2.8 9-7.2 12.4-20.7 13.1-13.4 0.7-321.8-1.7-333.9-1.7-12 0-14.8-4.1-16.2-15.1-1.2-11.1-2.9-122.3-3.3-138.1z" fill="none" stroke="#515151" stroke-miterlimit="9.559" stroke-opacity=".441" stroke-width="11.339"/><path d="m1648 1657.4c-52.3 0.3-73 39.6-72.3 77.8s35.2 60.8 71.7 60.2c36.5-0.7 73.6-23.3 74.3-68.1 0.7-44.7-35.5-68.5-73.7-69.9z" fill="#8F8F8F"/><path d="m1836.7 1657.8c-45.4 1-68.1 36.8-68.8 73.7-0.7 36.8 26.5 64.7 62.6 65.4s71.9-19.6 72.6-63.3c0.7-43.8-22-76.5-66.4-75.8z" fill="#DBDBDB"/><path d="m398.1 1801.9c39.4-1 73-26.8 72-74.5s-38-71.1-70.6-71.1-76.4 29.2-74 81.3c2.5 52.2 40.5 63.8 72.6 64.3z" fill="#8F8F8F"/><path d="m215.1 1655.4c52.6 0 76.9 34.6 78.4 71.1s-22.4 70.6-73 70.6-74.5-31.2-74.5-71.6c-0.1-40.4 27.2-71.1 69.1-70.1z" fill="#DBDBDB"/><path d="m91.6 1654.3c-4.5-15.8-0.7-17.9 11.4-17.9 12 0 365.9 1.7 381.4 2.1 15.5 0.3 17.9-0.7 20.3 15.1s6.9 141.1 7.2 152.1-5.5 11.7-16.2 11.4-323.5-2.1-333.5-2.4-14.1-5.5-20-18.6c-5.9-13-46.5-128.3-50.6-141.8z" fill="none" stroke="#515151" stroke-miterlimit="9.559" stroke-opacity=".441" stroke-width="11.339"/><g transform="translate(263.02 7.233)" fill="#ff992a" style="shape-inside:url(#rect894);white-space:pre"><path d="m585.21 225.45q-14.208 0-21.888-9.504t-7.68-26.208 7.68-26.208 21.888-9.504q9.888 0 16.416 4.608t9.216 12.672l-11.232 4.32q-1.344-4.992-4.896-7.872-3.456-2.976-9.504-2.976-8.64 0-13.056 6.528-4.32 6.432-4.32 18.432t4.32 18.528q4.416 6.432 13.056 6.432 6.048 0 9.504-2.88 3.552-2.976 4.896-7.968l11.232 4.32q-2.688 8.064-9.216 12.672t-16.416 4.608z"/><path d="m648.76 225.45q-14.208 0-21.888-9.504t-7.68-26.208 7.68-26.208 21.888-9.504 21.888 9.504 7.68 26.208-7.68 26.208-21.888 9.504zm0-10.752q8.64 0 12.96-6.432 4.416-6.528 4.416-18.528t-4.416-18.432q-4.32-6.528-12.96-6.528t-13.056 6.528q-4.32 6.432-4.32 18.432t4.32 18.528q4.416 6.432 13.056 6.432z"/><path d="m721.82 190.41h0.192l17.088-35.232h14.592v69.12h-11.904v-45.12l0.096-3.648h-0.192l-15.072 30.816h-9.408l-15.264-30.816h-0.192l0.096 3.648v45.12h-11.904v-69.12h14.688z"/><path d="m813.21 165.93h-34.272v17.952h27.936v10.752h-27.936v18.912h34.848v10.752h-46.752v-69.12h46.176z"/><path d="m864.48 202.32h0.192l-0.096-3.936v-43.2h11.904v69.12h-12.96l-27.168-47.136h-0.192l0.096 3.936v43.2h-11.904v-69.12h12.96z"/><path d="m917.66 225.45q-14.208 0-21.888-9.504t-7.68-26.208 7.68-26.208 21.888-9.504q9.888 0 16.416 4.608t9.216 12.672l-11.232 4.32q-1.344-4.992-4.896-7.872-3.456-2.976-9.504-2.976-8.64 0-13.056 6.528-4.32 6.432-4.32 18.432t4.32 18.528q4.416 6.432 13.056 6.432 7.296 0 11.04-4.32 3.744-4.416 3.744-12.288h-14.784v-10.752h26.688v36.96h-9.6l-0.864-5.952h-0.192q-2.784 3.456-6.912 5.28-4.032 1.824-9.12 1.824z"/></g></svg>
