<svg enable-background="new 0 0 1802.2 1666" version="1.1" viewBox="0 0 1802.2 1666" xml:space="preserve" xmlns="http://www.w3.org/2000/svg"><path d="m266.4 1665.8c46.5 0.9 1243.7-2.8 1272.9-1.5 27.6 1.2-6.9-140.6-6.9-140.6l-1305.9 4.3s-7.9 136.9 39.9 137.8z" fill="#1F1F1F"/><path d="m1512.7 15.3c156.2 11.4 210.1 45.5 241.4 87.3 29.6 39.4 30.9 58 32.5 151.7 1.9 107.1 6.7 438.4 12.1 815.3 5.2 354.6 9 450-23.1 528.6-28.2 69.1-26.1 68.9-66.1 67.3-39.5-1.5-149.1 1-175.9-1.5s-28-1.3-28-28.1 18.6-89.6-114.1-91.5c-132.8-2-956.7 0.5-1004.5 0.2s-98.8 9.3-98.8 63.7 0.8 57.7-15.6 57.6c-16.5-0.1-130.3-1.3-161-0.8-28.2 0.4-38.6 2.6-49.9-16-32.2-53.1-56.1-116.8-60.9-234.3-3.7-88.3 10-648 10.9-765 1-130.6 6-333.8 10.6-447.7 3.9-96.3 65.1-159 183.7-178.1 118.5-19 451.3-25.3 708.2-23.8s456.8-0.6 598.5 15.1z" fill="#E4BA09"/><path d="m1659.6 336.5c0-84-1.6-131.8-74.1-145.4s-437.3-17.4-617.7-20.1-575.7 8.1-689.3 16.5c-113.7 8.4-114.5 54.5-119.5 133.5-4.9 79 30.5-66.5 30.5-66.5l184.5-26.9 1220.5 3.1 32.9 40.6 32.2 65.2z" fill="#764D02"/><path d="m1525.3 209.7c108.7 3.5 130.1 18.9 135.1 139.2 4.9 120.3 8.2 533.7 0 637.4s-19.5 155.3-80.1 158.5c-60.6 3.1-92 1.4-110.1 1.7-359.4 5.8-592.4 11.4-862.4 4.1-35.4-1-282.5-4.2-357.4-4.6s-100.5-36.8-102.1-133.2 3.3-359.1 4.9-448.8c1.6-89.8 2.5-213.3 7.4-265.1s31.3-87.9 164.7-88c133.5-0.1 1092.1-4.7 1200-1.2z" fill="#2A2A2A"/><path d="m0 0" fill="#2A2A2A"/><path d="m122.1 1103.5c4.7-43.7 6.4-16.8 19.2 10.6s34.4 54.4 125.8 59 440.3 11.4 525.9 11.9 505.5-1.1 602.7-6.3c97.3-5.2 204.4-8.1 227.1-23.7s41.9-51.6 46.6-67.3 8.2-13.9 9.9 20.4c1.7 34.4 10.5 118.9 11.6 136.3 1.2 17.5 0.6 15.7-11.6 12.2-12.2-3.6-128.7 0.4-205 12.2s-138 56.3-156.1 100.4c-18.1 44.2-8.2 68.1 8.2 81 16.3 12.9 0 14-37.9 14.9s-289.4-3.5-431.5-3.1c-142.1 0.3-371 1.9-384.4 0.6-13.4-1.2-13.4-7.1-3.5-15.7 9.9-8.7 22.1-17.3 19.8-51.1s-51.2-98.1-132.8-120.2c-81.5-22-204.4-23.3-221.3-20.5s-25 12.7-23.9-7.1c1.3-19.9 9.4-122.4 11.2-144.5z" fill="#3C75B0"/><path d="m537.3 286.6c0.6-19.8-2.3-19.2 26.2-20.8s669.1 0.5 690.7 0.6c21.5 0.1 27.4 2.5 26.8 27.5s0 123.5-0.6 142.7-1.7 23.3-24.5 22c-22.7-1.3-671.5-1.7-694.2-1.2-22.7 0.4-24.5-3.6-24.5-26.4 0.1-22.7-0.5-119.3 0.1-144.4z" fill="#515151"/><path d="m399.9 264.3c19.8 0.7 21 2.5 21.5 19.9 0.6 17.5 0 44.8-0.6 58.8s-6.4 18-17.5 18.5-162.5 0.2-175.3-0.5-17.5-3.6-18.1-20.5 0-50.1 0.6-61.1c0.6-11.1 1.7-14.5 18.6-15 17-0.5 149.8-1.4 170.8-0.1z" fill="#6E6E6E"/><path d="m265.6 357.8c20.4-0.2 41.9-16.3 42.8-44s-22.1-41.2-42.2-41.6-39.9 18.1-40.8 42.9c-0.8 24.7 16.1 44 40.2 42.7z" fill="#E9E9E9"/><path d="m326.8 315.7c0-23 18.1-41.8 37.9-42s41.6 12.5 41.6 43.9-20.4 39.8-36.1 40c-15.7 0.1-42.5-11.1-43.4-41.9z" fill="#E25138"/><path d="m1397.2 276.3c0.9-7.6 1.2-8.7 9.6-9.3 8.4-0.5 174.7-0.4 185.8 0.2s12.2 2.7 12.5 14.3 0.3 51-0.3 62.3c-0.6 11.4-2.9 16.6-11.1 16.5-8.2 0-178.5 0.7-187.2 0.6s-10.2-5.6-10.2-12.3c0-6.5 0.6-63.9 0.9-72.3z" fill="#6E6E6E"/><path d="m1446.7 354.9c33.8-0.7 42.2-25.4 41.3-43.7-0.9-18.4-13.1-38.8-39.9-39.8s-42.8 19.3-43.1 41.4 14 42 41.7 42.1z" fill="#E25138"/><path d="m1551.7 272.8c-31.2-0.3-43.3 20.5-42.2 43.5 1.2 23 14.3 39.1 43.4 38.7s38.7-18.7 39-42-12.5-39.9-40.2-40.2z" fill="#E9E9E9"/><path d="m209.8 539.2c3.9-30.6 4.9-27.6 41.5-28.4 36.5-0.8 1289 0.8 1318.6 0.9 29.6 0.2 33.6 5.1 34.5 40.7s1 485.6 0 521.1-3.9 42.4-28.6 42.3-574.4-1.4-740.2-0.5c-165.8 1-548.8-1.3-587.3-2.5s-45.4-4.2-45.4-33.8 5.9-502.3 6.9-539.8z" fill="#626262"/><path d="m1623.3 1262.8c45-2.5 75.5 7 64.7 57.1s-31.4 105.3-77.8 121.9-210.1 21.3-238.2 20.2-55.3-19.1-55.8-45.8 26.3-85.6 79.2-112.1c53-26.4 189.9-39.1 227.9-41.3z" fill="#AA7601"/><path d="m1421.7 1305.2c52-0.6 76.9 27.2 78.3 65.2s-26.7 76.7-70.8 77.4-71.3-41.2-72.7-68.9c-1.4-27.6 16.9-70.2 65.2-73.7z" fill="#A2A2A2"/><path d="m1515 1366.3c0.5-41.7 28.1-74.9 70.8-76.9 42.7-2.1 71.7 34.2 71.7 69.8s-29.4 73-68.8 73.7c-39.4 0.6-73.7-22.1-73.7-66.6z" fill="#D6D6D6"/><path d="m111.3 1321.3c-2.5-42.6 9.8-61.5 48.8-59.8 39 1.8 92.4 0.9 160.4 16.2s106.4 32.3 134.2 77.3 25 68.2 14.6 81.8-17.4 22.8-66.5 22.2-95.8 1.3-151.3-7-83.6-11.8-104.6-41.5-34.2-64.8-35.6-89.2z" fill="#AA7601"/><path d="m215 1433.2c41.2-0.1 76.5-29.1 75.9-70.6s-38.6-71.6-72.9-72.1c-38.7-0.5-70.4 24.9-69.2 72.5s39.9 70.3 66.2 70.2z" fill="#D6D6D6"/><path d="m304.6 1375.8c0.3-45.8 29.6-70.6 68.6-70.9 39-0.4 70.7 29.4 72.9 68.4 2.1 39-23.2 73.7-65.6 72.8-42.3-0.9-76.1-32.5-75.9-70.3z" fill="#A2A2A2"/><g fill="#c9930e" stroke-width="3.0289"><path d="m576.57 321.08 17.204 30.047h0.24232l17.083-30.047h17.326l-24.837 42.163 26.776 45.071h-17.204l-19.143-32.955h-0.24232l-19.143 32.955h-17.326l26.776-45.071-24.716-42.163z"/><path d="m653.23 348.22h-10.298l-1.5751-27.866h13.449z"/><path d="m666.17 321.08h66.031v13.57h-25.443v73.664h-15.145v-73.664h-25.443z"/><path d="m776.91 321.08q14.175 0 22.172 7.5118 8.1176 7.5118 8.1176 20.597 0 9.8138-4.604 16.599-4.4828 6.7848-12.843 9.6926l17.689 32.834h-17.083l-16.599-30.895h-14.66v30.895h-15.024v-87.234zm-0.60579 42.769q7.7541 0 11.631-3.7559 3.8771-3.7559 3.8771-10.904 0-7.0272-3.8771-10.783t-11.631-3.7559h-17.204v29.199z"/><path d="m894.02 408.32h-15.629l-6.3002-19.87h-31.016l-6.1791 19.87h-15.629l27.745-87.234h19.264zm-37.196-69.302h-0.24232l-4.604 15.266-6.5425 20.718h22.414l-6.5425-20.718z"/><path d="m938.41 321.08q14.297 0 22.293 7.5118 8.1176 7.5118 8.1176 20.597 0 13.206-8.1176 20.718-7.9964 7.5118-22.293 7.5118h-17.447v30.895h-15.024v-87.234zm-0.48464 42.769q7.7541 0 11.631-3.7559 3.8771-3.7559 3.8771-10.904 0-7.0272-3.8771-10.783-3.877-3.7559-11.631-3.7559h-16.962v29.199z"/><path d="m1018.4 409.77q-17.931 0-27.624-11.995-9.6926-11.995-9.6926-33.076t9.6926-33.076q9.6926-11.995 27.624-11.995t27.624 11.995q9.6927 11.995 9.6927 33.076t-9.6927 33.076q-9.6926 11.995-27.624 11.995zm0-13.57q10.904 0 16.356-8.1176 5.5733-8.2387 5.5733-23.383t-5.5733-23.262q-5.4521-8.2387-16.356-8.2387t-16.478 8.2387q-5.4521 8.1176-5.4521 23.262t5.4521 23.383q5.5733 8.1176 16.478 8.1176z"/><path d="m1085.4 394.75h43.98v13.57h-59.004v-87.234h15.024z"/><path d="m1170 333.2v63.002h13.449v12.116h-41.921l0.1211-12.116h13.449v-63.002h-13.449v-12.116h41.8v12.116z"/><path d="m1227.4 409.77q-12.358 0-21.082-5.0886-8.6023-5.0886-11.631-14.175l13.691-6.3002q1.6962 5.6944 6.6636 8.8445 4.9675 3.1501 12.358 3.1501 7.9964 0 12.964-3.1501 4.9674-3.2713 4.9674-9.3292 0-3.7559-2.1808-5.9367-2.1808-2.302-6.906-3.877-4.7252-1.6962-14.297-3.9982-13.57-3.029-19.628-8.7234-5.9368-5.8156-5.9368-15.508 0-7.7541 3.8771-13.57 3.877-5.9368 10.904-9.208 7.0272-3.2713 16.235-3.2713 11.025 0 19.385 5.0886 8.3599 5.0886 11.874 14.054l-13.691 6.0579q-1.8174-5.5733-6.5426-8.6022-4.604-3.029-11.025-3.029-7.3907 0-11.631 3.2713-4.1194 3.2713-4.1194 9.208 0 3.3924 1.9385 5.4521 2.0597 2.0597 6.3003 3.6347 4.3617 1.5751 12.843 3.5136 10.662 2.4232 16.72 5.6944 6.0579 3.1501 8.6022 7.8753 2.6655 4.604 2.6655 11.873 0 8.2388-4.4828 14.175-4.3617 5.8156-11.995 8.8445-7.6329 3.029-16.841 3.029z"/></g></svg>
