<svg xmlns="http://www.w3.org/2000/svg" viewBox="0 0 128 128" role="img" aria-labelledby="title desc">
  <title id="title">TransitAlert app icon</title>
  <desc id="desc">Original independent transit app icon with a stylised vehicle and route sparks.</desc>
  <defs>
    <linearGradient id="bg" x1="0" y1="0" x2="1" y2="1">
      <stop offset="0%" stop-color="#071329" />
      <stop offset="100%" stop-color="#123a78" />
    </linearGradient>
    <linearGradient id="body" x1="0" y1="0" x2="0" y2="1">
      <stop offset="0%" stop-color="#27c2ff" />
      <stop offset="100%" stop-color="#1d77ff" />
    </linearGradient>
  </defs>
  <rect width="128" height="128" rx="28" fill="url(#bg)" />
  <path d="M24 95c15-16 29-24 40-24s25 8 40 24" fill="none" stroke="#22d3ee" stroke-linecap="round" stroke-width="7" opacity=".9" />
  <path d="M44 25h40c8 0 15 7 15 15v34c0 17-14 31-31 31h-8c-17 0-31-14-31-31V40c0-8 7-15 15-15Z" fill="url(#body)" />
  <rect x="38" y="34" width="52" height="26" rx="9" fill="#e6f7ff" />
  <rect x="42" y="68" width="44" height="10" rx="5" fill="#0f2148" opacity=".85" />
  <circle cx="47" cy="91" r="6" fill="#f8fafc" />
  <circle cx="81" cy="91" r="6" fill="#f8fafc" />
  <path d="M58 17l6-8 6 8" fill="none" stroke="#f8fafc" stroke-linecap="round" stroke-linejoin="round" stroke-width="5" />
</svg>
