<?xml version="1.0" encoding="UTF-8" standalone="no"?>
<!-- Generator: Adobe Illustrator 28.2.0, SVG Export Plug-In . SVG Version: 6.00 Build 0)  -->

<svg
   version="1.1"
   id="Layer_2"
   x="0px"
   y="0px"
   viewBox="0 0 2500 2500"
   style="enable-background:new 0 0 2500 2500;"
   xml:space="preserve"
   sodipodi:docname="xtrapolis2.svg"
   inkscape:version="1.3-beta (cedbd6c, 2023-05-28)"
   xmlns:inkscape="http://www.inkscape.org/namespaces/inkscape"
   xmlns:sodipodi="http://sodipodi.sourceforge.net/DTD/sodipodi-0.dtd"
   xmlns="http://www.w3.org/2000/svg"
   xmlns:svg="http://www.w3.org/2000/svg"><defs
   id="defs83"><rect
     x="876.17719"
     y="309.23901"
     width="725.52229"
     height="138.76109"
     id="rect83" /></defs><sodipodi:namedview
   id="namedview83"
   pagecolor="#505050"
   bordercolor="#eeeeee"
   borderopacity="1"
   inkscape:showpageshadow="0"
   inkscape:pageopacity="0"
   inkscape:pagecheckerboard="0"
   inkscape:deskcolor="#505050"
   inkscape:zoom="0.25037641"
   inkscape:cx="1216.1689"
   inkscape:cy="1333.9915"
   inkscape:window-width="1512"
   inkscape:window-height="825"
   inkscape:window-x="1"
   inkscape:window-y="38"
   inkscape:window-maximized="0"
   inkscape:current-layer="Layer_2" />&#10;<style
   type="text/css"
   id="style1">&#10;	.st0{fill:#373737;}&#10;	.st1{fill:#212121;}&#10;	.st2{fill:none;}&#10;	.st3{fill:#0F2B46;}&#10;	.st4{fill:#007BAF;}&#10;	.st5{fill:#29416D;}&#10;	.st6{fill:#005180;}&#10;	.st7{fill:#006696;}&#10;	.st8{fill:#015A8F;}&#10;	.st9{fill:#008ABB;}&#10;	.st10{fill:#E4A300;}&#10;	.st11{fill:#B17305;}&#10;	.st12{fill:#0093C7;}&#10;	.st13{fill:none;stroke:#00FF00;stroke-miterlimit:10;}&#10;	.st14{fill:#00719F;}&#10;	.st15{fill:#3297C7;}&#10;	.st16{fill:#0C0E0D;}&#10;	.st17{fill:#080808;}&#10;	.st18{fill:#616360;}&#10;	.st19{fill:#001E3F;}&#10;	.st20{fill:#2A2A2C;}&#10;	.st21{fill:#02496A;}&#10;	.st22{fill:#66838E;}&#10;	.st23{fill:#755B3E;}&#10;	.st24{fill:#BD6B00;}&#10;</style>&#10;<g
   id="g78">&#10;	<path
   class="st0"
   d="M1407.5,464.2c-270.8-2.8-781.3-1.8-781.3-1.8S638.1,715.5,647,789c6.3,52.5,18.6,196.2,25.2,274.3   c35.4-0.2,235.6-0.9,374.1,0c152.5,1.1,723.4-0.5,723.4-0.5h68.1l0.7-16l8.9-189.6l18.2-389.4   C1865.6,467.9,1678.3,467,1407.5,464.2z"
   id="path1" />&#10;	<g
   id="g9">&#10;		<g
   id="g5">&#10;			<g
   id="g4">&#10;				<path
   class="st1"
   d="M1101.4,1068.7c-10.2-12.3-19.5-21.2-59.8-25.4v-33.3h-4.2v32.9c-16-1.4-36.5-2.2-63.2-2.2      c-19,0-34.6,0.9-47.5,2.4v-34.7h-4.2v35.2c-51.2,6.7-55.5,22.7-55.5,22.7l64.2,26.9l118.6-5.3      C1050,1087.9,1115.8,1086,1101.4,1068.7z"
   id="path2" />&#10;				<g
   id="g3">&#10;					<path
   class="st1"
   d="M940,1015.1c-7.9,1.1-13.8-3.4-18.8-3.1c-5,0.3-22.3,2.4-21.6-11.1c0.7-13.5,2.2-30,7.5-51.6       s8.4-32.1,10.4-38.4c2-6.3,10-11.2,29.2-11.5c19.2-0.3,32.5,0,61.3,1.3c28.8,1.3,36.5,4.5,38.4,8.4c1.9,3.9,8,32.4,12.9,52.8       s6.7,32.7,3.6,42c-3.1,9.3-13.3,9.9-17.7,9.1c-4.4-0.8-7.9-0.3-10.9,1.3s-18.1,1.1-30.8,1C990.8,1015.1,940,1015.1,940,1015.1z       "
   id="path3" />&#10;				</g>&#10;			</g>&#10;		</g>&#10;		<g
   id="g8">&#10;			<g
   id="g7">&#10;				<path
   class="st1"
   d="M1640.9,1070c-10.2-12.3-19.5-21.2-59.8-25.4v-33.3h-4.2v32.9c-16-1.4-36.5-2.2-63.2-2.2      c-19,0-34.6,0.9-47.5,2.4v-34.7h-4.2v35.2c-51.2,6.7-55.5,22.7-55.5,22.7l64.2,26.9l118.6-5.3      C1589.4,1089.2,1655.3,1087.3,1640.9,1070z"
   id="path5" />&#10;				<g
   id="g6">&#10;					<path
   class="st1"
   d="M1479.5,1016.4c-7.9,1.1-13.8-3.4-18.8-3.1c-5,0.3-22.3,2.4-21.6-11.1c0.7-13.5,2.2-30,7.5-51.6       c5.2-21.6,8.4-32.1,10.4-38.4c2-6.3,10-11.2,29.2-11.5s32.5,0,61.3,1.3c28.8,1.3,36.5,4.5,38.4,8.4c1.9,3.9,8,32.4,12.9,52.8       s6.7,32.7,3.6,42c-3.1,9.3-13.3,9.9-17.7,9.1c-4.4-0.8-7.9-0.3-10.9,1.3s-18.1,1.1-30.8,1S1479.5,1016.4,1479.5,1016.4z"
   id="path6" />&#10;				</g>&#10;			</g>&#10;		</g>&#10;	</g>&#10;	<path
   class="st2"
   d="M696.9,2376.1l5.2-2.1c0,0-0.6-1.5-1.7-4.8c-2.3-1.1-4.7-2.2-7-3.3C695.6,2372.8,696.8,2375.8,696.9,2376.1z"
   id="path9" />&#10;	<path
   class="st2"
   d="M1818.4,2375.7l5.3,1.8c1.1-3.1,2.9-8.7,5-15.8c-2.2,1.1-4.5,2.1-6.8,3.2   C1820.5,2369.4,1819.3,2373.1,1818.4,2375.7z"
   id="path10" />&#10;	<path
   class="st3"
   d="M1909.4,1785.9c1.1,3.3,2.2,6.8,3.4,10.3c23.1-1.8,164.9-12.8,176.6-13.3c8.9-0.4,13.3,3.1,15.8,9.1   c-0.3-5.8-0.5-13.3-0.7-22.6c-8,6.4-17,7.2-35.1,8.7C2050.8,1779.7,1930.6,1784.9,1909.4,1785.9z"
   id="path11" />&#10;	<path
   class="st4"
   d="M2105.2,1792c-2.5-6-7-9.5-15.8-9.1c-11.7,0.5-153.5,11.5-176.6,13.3c8.1,25.2,16.2,53.8,21.2,71.5   c2,7.3,3.9,13.3,5.3,18.2c4.6,15.3,6.4,21.3,1.4,26.5c57.3-4.2,85.6,12,92.4,42.4c7.5,33.6,35.2,247.4,36.3,264.4   s-10,30.9-35.5,55.4c-18.3,17.6-65.4,47.3-90.3,62.8c16.9-2.2,33.7-5.2,47-9.5c40.8-13.3,71.7-34.4,104.8-75.4s29.6-48.2,28.5-93.6   c-1.1-45.3-11.2-276.1-11.7-308.7c0-2.2-0.1-4.5-0.1-6.7c-2.9-17.1-5.6-35-6.3-45.5C2105.4,1796.3,2105.3,1794.3,2105.2,1792z"
   id="path12" />&#10;	<path
   class="st5"
   d="M2157.4,1302.6c-5.7-72.9-26.8-365.3-33-447.9c-6.1-82.6-18.7-224.7-26.9-306c-6.6-65.3-13.8-156.5-16.4-199.7   c-0.1,21.6-0.1,50.7,0.4,84.3c1.1,73.6,21.3,335.3,20.3,435c-1.1,99.7,13.9,573.6,7.5,698.9c-4.8,94.1-5.4,163.2-4.7,202.2   c1.1-0.8,2.1-1.8,3.1-2.8c-1,1.1-2.1,2-3.1,2.8c0.2,9.3,0.4,16.8,0.7,22.6c1.1,2.6,1.9,5.7,2.5,9.2c-0.6-3.5-1.3-6.6-2.5-9.2   c0.1,2.3,0.2,4.3,0.3,6c0.7,10.5,3.4,28.4,6.3,45.5c8.8-33.3,34-136.3,39.5-180.8C2171.5,1502.9,2163.1,1375.4,2157.4,1302.6z"
   id="path13" />&#10;	<path
   class="st6"
   d="M1704.6,1941.9l130.1,15.2c3.7-2.9,8.2-5.5,13.5-8.5l1.1-0.6c10.6-5.9,30.3-13.9,47.7-21   c12.9-5.3,25.2-10.3,32-13.7c-2.3,0.3-4.6,0.5-7,0.8C1852.3,1923.5,1704.6,1941.9,1704.6,1941.9z"
   id="path14" />&#10;	<path
   class="st6"
   d="M593.6,1918.6c11.8,5.9,33.2,15,52.4,23.2c17.2,7.3,32.1,13.7,38.2,16.9c1.2,0.6,2.3,1.2,3.3,1.8l191.1-9   C878.7,1951.5,682.3,1925.6,593.6,1918.6z"
   id="path15" />&#10;	<path
   class="st7"
   d="M1772.9,2297.5c-42.7,7.4-92.9,11-113.7,12.3c19.9,29.2,41.1,61.6,52.8,79.5c0.3,0,0.6-0.1,0.9-0.1   c15.7-1.3,68.1-8.4,93-17.6c5.3-2,10.7-4.3,16-6.7c6.7-21.6,18-61.9,21.5-85.2C1835.8,2282.9,1814.9,2290.2,1772.9,2297.5z"
   id="path16" />&#10;	<path
   class="st7"
   d="M676.2,2270.2c1.2,15.6,3.8,29.9,8.2,45.7c8,29.4,13.4,45.9,16,53.3c6.9,3.1,13.8,5.9,20.2,7.5   c18,4.7,72.1,13.9,90.6,15.7c1.2,0.1,2.3,0.2,3.3,0.3c8-11.8,31.6-46.8,53.7-78C767.4,2304.9,692.3,2276.7,676.2,2270.2z"
   id="path17" />&#10;	<path
   class="st8"
   d="M1659.2,2309.8c-12.6-18.5-24.7-35.8-33.5-47.2c-29.1-37.8-50.1-50.4-89.3-51.7c-39.2-1.3-161.3-1.9-239.6-1.9   c-78.4,0-301.2,0.5-326.3,4c-25.1,3.5-49.8,30.7-79.4,70.1c-6.9,9.1-14.8,20.2-23,31.7c-22.1,31.2-45.7,66.2-53.7,78   c15.6,1.3,18.6-0.3,20.8-3c2.4-2.9,76.3-110.6,94.7-136c18.4-25.3,39.7-30.9,67.2-30.9c27.5,0,487.5-0.3,522.2,0   c34.7,0.3,50.4-1.3,69.3,23.5c18.9,24.8,53.8,68.5,78.4,107.4c24,38.1,29.9,36.9,44.9,35.5   C1700.3,2371.4,1679.1,2339,1659.2,2309.8z"
   id="path18" />&#10;	<path
   class="st9"
   d="M674.6,2170.9c2.6-27.2,4.1-45.7,5.4-61.9c2.1-25.6,3.6-44.2,7.9-79.7c7-58.8,6-59.3-6.2-65.7   c-6-3.1-21.5-9.7-37.9-16.7c-23.1-9.9-49.3-21.1-58.8-26.5c-1.4-0.8-2.7-1.7-3.8-2.7c-6.9-0.4-12.8-0.7-17.5-0.8   c-60.2-1.1-86.1,25.6-92.3,99.7c-6.3,74.1-18.5,177-19.6,210.6c-1,30.4,62.1,86.4,136.8,119.7c19.5,2.1,29.6,1,38,1   c13.6,0,26.8,1.2,40.2,6c7,2.5,16.4,7.4,26.4,12.1c-3-8.9-7.8-24.4-14.4-48.6C667.4,2275.1,667.7,2243.7,674.6,2170.9z"
   id="path19" />&#10;	<path
   class="st9"
   d="M2069.3,2219.1c-1.1-17.1-28.8-230.8-36.3-264.4c-6.8-30.5-35.1-46.7-92.4-42.4c-1.3,1.4-3,2.6-5.3,4   c-5.7,3.5-19.8,9.2-36.1,15.9c-17.2,7-36.8,15-47.1,20.7l-1.1,0.6c-18.6,10.3-25.6,14.1-20.9,50.3c4.5,34.8,8.6,75.4,14.2,140   c4.5,51.6,6.7,98.5,5.9,125.6c-0.6,19.3-13.5,66.2-21.4,92.4c16.5-7.9,30.8-16.1,37.5-17.6c6.5-1.4,42.2-2.3,77.2-6.8   c24.9-15.5,72-45.3,90.3-62.8C2059.3,2250.1,2070.3,2236.2,2069.3,2219.1z"
   id="path20" />&#10;	<path
   class="st3"
   d="M418.3,1789.7c7.7,0.8,21.9,2.5,58.1,4.3c31.8,1.5,110.5,5,129.2,5.8c1.1-3.5,2.1-6.9,3.2-10.2   c-14.4-0.5-81.7-2.8-123.3-4.9c-31-1.6-54-3.5-66.1-4.7c-5.6-0.5-10.8,2.7-12.9,7.9l-6.2,15.4c-2,12.9-4.3,25.5-6.7,37.4   c-0.1,4.1-0.2,8.5-0.3,13.1c3.2-14.4,7.5-32.3,10.6-42C409.6,1794,410.5,1788.9,418.3,1789.7z"
   id="path21" />&#10;	<path
   class="st4"
   d="M451.9,2227.1c1.1-33.6,13.3-136.5,19.6-210.6c6.3-74.1,32.1-100.8,92.3-99.7c4.7,0.1,10.6,0.4,17.5,0.8   c-9.6-8.2-5.7-20.5,3.3-48.6c2.9-9,6.5-20.2,10.3-33.4c3.7-12.6,7.2-24.6,10.7-35.8c-18.7-0.8-97.4-4.3-129.2-5.8   c-36.3-1.7-50.4-3.5-58.1-4.3c-7.7-0.8-8.7,4.3-14.5,22.1c-3.1,9.7-7.4,27.6-10.6,42c-1,41-2.6,97.2-3.7,123   c-1.6,37.8-5.9,168-5.9,192.9c0,24.1-1,38.5,11.7,57.5c0.7,1.1,1.5,2.2,2.2,3.3c3.5,5.7,17.8,27.6,43.2,55   c29.6,32,55.2,43.7,99.7,52.8c20.9,4.8,36.4,7.3,48.3,8.6C514,2313.6,450.9,2257.5,451.9,2227.1z"
   id="path22" />&#10;	<path
   class="st10"
   d="M566.5,204.3c0.5-0.2,0.9-0.3,0.9-0.3s230.3-30.2,474.8-34.1c124-6.8,342.6-1.3,449.5,1.6   c106.9,2.9,223.1,10.3,288.7,16.3c65.6,6,100.4,9.4,115.5,11.6c11.5,1.6,24.7,3.6,30.6,5.3v-9v9c1.8,0.5,2.9,1.1,3,1.6   c0,0-0.9-23.1-6.4-44.4c0-0.2-0.1-0.3-0.1-0.5c-0.3-1.1-1.6-4.2-5.6-6.3c-5-2.7-32.2-14.7-72.9-21.7   c-40.7-6.9-318.2-21.1-402.4-24.1c-84.2-2.9-263.6-3.7-355.3-0.8c-91.7,2.9-250.3,10.7-250.3,10.7S730,125.9,708.6,127   c-21.5,1.1-65.6,6-71.7,7.7c-6.1,1.7-55.6,16.4-60.4,18.3c-2.5,1-4.6,2.4-6.3,4.5c-1.8,15-3.7,43.6-3.7,43.6   S566.5,202.3,566.5,204.3z"
   id="path23" />&#10;	<path
   class="st11"
   d="M1930,214l6.2,0.4c0-3.3,1.2-5.2,3.5-5.7c-0.5-27-6.3-41.6-9.8-48c-3.2-0.3-6.8,1.3-6.8,1.3   c5.5,21.3,6.4,44.4,6.4,44.4C1930,208.5,1930,214,1930,214z"
   id="path24" />&#10;	<path
   class="st12"
   d="M1722.1,1775.6c-27,27-71.1,44.4-134.3,60.1c-63.3,15.6-215,18.1-323.1,19.5c-108,1.4-278.6-10.3-311-13.5   c-32.3-3.2-107-27.4-164.2-87.1c-41.2-42.9-77.3-80.9-111.1-119.8c-2.6,5.6-5.5,11.8-8.4,18.2c-8.3,17.9-17.7,38.2-24.9,53.4   c-11.5,24.2-27,69.4-44.8,130.7c-3.9,13.3-7.5,24.6-10.3,33.6c-10,31.4-12,39-2,44.8c1.5,0.9,3.5,1.9,5.8,3.1   c88.6,7,285.1,32.9,285.1,32.9l-191.1,9c12.9,7.7,12.2,16.4,5.9,69.5c-4.2,35.4-5.8,53.9-7.9,79.5c-1.3,16.3-2.9,34.7-5.4,62   c-4.2,44.6-6,73.4-4,98.8c16.1,6.4,91.2,34.7,192,44.6c8.2-11.5,16.1-22.6,23-31.7c29.6-39.4,54.4-66.6,79.4-70.1   c25.1-3.5,247.9-4,326.3-4c78.4,0,200.4,0.5,239.6,1.9c39.2,1.3,60.2,13.9,89.3,51.7c8.7,11.4,20.8,28.6,33.5,47.2   c20.7-1.3,70.9-4.9,113.7-12.3c42-7.3,62.9-14.7,70.6-17.8c0.6-4.1,1-7.7,1.1-10.5c0.6-20.7-0.6-64.5-5.9-125   c-5.6-64.5-9.7-105-14.2-139.7c-3.6-28.3-0.1-39.1,10.2-47.3l-130.1-15.2c0,0,147.7-18.4,217.5-27.7c2.4-0.3,4.7-0.6,7-0.8   c1.3-0.7,2.5-1.3,3.3-1.8c7.1-4.3,7.4-4.5,1.5-24.2c-1.5-4.8-3.3-10.9-5.4-18.3c-6.8-24.4-19.7-69.4-30-97.6   c-10.8-29.5-28.4-75.7-42.2-108.8c-4.7-11.3-10-22.7-15.2-33.4c-1.8,3.7-10.1,19.8-33.4,48.6   C1781.1,1710.9,1749.1,1748.6,1722.1,1775.6z"
   id="path25" />&#10;	<path
   class="st13"
   d="M1922.9,161.5c0,0.2,0.1,0.3,0.1,0.5C1923,161.9,1923,161.7,1922.9,161.5z"
   id="path26" />&#10;	<path
   class="st5"
   d="M397.6,1809.7l2.6-6.4c7.3-46.3,11.8-96.7,11.8-138.2c0-59.4-0.6-87.2-3.8-178.4c-3.2-91.2-10.2-418-7-581.6   s15-587.8,13.2-598c-0.5,1.6-0.8,3.1-1,4.7c-1.6,14.4-14.9,198-18.8,254.5c-3.9,56.5-19.5,268.7-25.2,346.2   c-5.7,77.5-16.4,297-20.6,362.4c-4.3,65.4-6.4,274.6,10.2,388.9c8.3,57.4,16.4,120.4,34.5,177c2.4-12,4.7-24.5,6.7-37.4   L397.6,1809.7z"
   id="path27" />&#10;	<path
   class="st14"
   d="M1939.2,1885.8c-1.5-4.8-3.3-10.8-5.3-18.2c-4.9-17.7-13.1-46.3-21.2-71.5c-1.1-3.5-2.2-6.9-3.4-10.3   c-1.9-5.8-3.8-11.3-5.7-16.3c-10.8-29.5-28.4-75.8-42.3-109c-5-12-10.6-24.1-16.1-35.4c-2.7,2.1-3.8,3.3-3.8,3.3s-0.1,0.3-0.4,0.8   c5.2,10.7,10.5,22.1,15.2,33.4c13.8,33.1,31.4,79.3,42.2,108.8c10.4,28.2,23.3,73.3,30,97.6c2.1,7.4,3.9,13.4,5.4,18.3   c6,19.7,5.7,19.8-1.5,24.2c-0.9,0.5-2,1.1-3.3,1.8c-6.8,3.4-19.1,8.4-32,13.7c-17.4,7.1-37.1,15.1-47.7,21l-1.1,0.6   c-5.4,3-9.9,5.6-13.5,8.5c-10.3,8.3-13.8,19-10.2,47.3c4.5,34.7,8.6,75.2,14.2,139.7c5.3,60.5,6.5,104.2,5.9,125   c-0.1,2.9-0.5,6.4-1.1,10.5c-3.6,23.3-14.8,63.6-21.5,85.2c2.3-1.1,4.6-2.1,6.8-3.2c7.9-26.2,20.8-73.1,21.4-92.4   c0.8-27.1-1.4-74-5.9-125.6c-5.6-64.6-9.8-105.1-14.2-140c-4.6-36.1,2.3-40,20.9-50.3l1.1-0.6c10.3-5.7,29.9-13.7,47.1-20.7   c16.3-6.7,30.4-12.4,36.1-15.9c2.3-1.4,4-2.7,5.3-4C1945.6,1907.1,1943.8,1901,1939.2,1885.8z"
   id="path28" />&#10;	<path
   class="st14"
   d="M684.3,2316c-4.3-15.8-6.9-30.1-8.2-45.7c-2-25.4-0.2-54.2,4-98.8c2.6-27.3,4.1-45.7,5.4-62   c2.1-25.6,3.6-44.1,7.9-79.5c6.4-53.1,7-61.8-5.9-69.5c-1-0.6-2.1-1.2-3.3-1.8c-6.1-3.2-21-9.5-38.2-16.9   c-19.2-8.2-40.6-17.3-52.4-23.2c-2.3-1.2-4.3-2.2-5.8-3.1c-10-5.8-8-13.4,2-44.8c2.9-9,6.5-20.2,10.3-33.6   c17.8-61.3,33.3-106.5,44.8-130.7c7.2-15.2,16.6-35.5,24.9-53.4c3-6.4,5.8-12.6,8.4-18.2c-1.3-1.5-2.7-3.1-4-4.6   c-2.9,6.1-6.1,13.2-9.5,20.4c-8.3,17.9-17.7,38.2-24.9,53.3c-8.5,17.9-19.2,47.1-31.2,85.5c-1,3.3-2.1,6.7-3.2,10.2   c-3.5,11.2-7,23.2-10.7,35.8c-3.9,13.3-7.4,24.5-10.3,33.4c-9,28.1-12.9,40.4-3.3,48.6c1.1,0.9,2.3,1.8,3.8,2.7   c9.4,5.5,35.6,16.7,58.8,26.5c16.4,7,31.9,13.6,37.9,16.7c12.3,6.4,13.3,6.9,6.2,65.7c-4.3,35.5-5.8,54-7.9,79.7   c-1.3,16.3-2.9,34.7-5.4,61.9c-6.9,72.8-7.2,104.2,4.4,146.5c6.6,24.2,11.4,39.6,14.4,48.6c2.3,1.1,4.6,2.2,7,3.3   C697.8,2361.9,692.3,2345.3,684.3,2316z"
   id="path29" />&#10;	<path
   class="st11"
   d="M560.1,204.8l0.4,9.7c1.6-7.3,4.6-9.5,6-10.2c0-2,0-3.2,0-3.2s1.9-28.7,3.7-43.6c-1.5,1.9-2.6,4.3-3.2,7.4   c-1.5-1.3-2.6-2.6-4-3.1c-1.1,3.4-2,7.9-2,13.5C561,188.9,560.1,204.8,560.1,204.8z"
   id="path30" />&#10;	<path
   class="st15"
   d="M401.2,905.1c-3.2,163.7,3.8,490.5,7,581.6c3.2,91.2,3.8,119,3.8,178.4c0,41.5-4.5,91.9-11.8,138.2l6.2-15.4   c2.1-5.2,7.4-8.4,12.9-7.9c12,1.1,35.1,3.1,66.1,4.7c41.6,2.1,109,4.4,123.3,4.9c12.1-38.5,22.7-67.6,31.2-85.5   c7.2-15.2,16.6-35.4,24.9-53.3c3.4-7.3,6.6-14.3,9.5-20.4c-11.8-13.7-23.3-27.4-34.6-41.6c-44.8-56.2-103.4-136.5-120.8-177   c-16-42.6-21.7-115.1-24.9-175.9c0,0-6.6-141.7-9.2-204.9c-2.7-63.2-12.3-354.5-12.3-354.5s-2.7-361.4,0-381.2   c2.7-19.7,6.4-46.4,7.2-54.9c0.6-6.5,0.3-9.6-3.6-11.5c-7.3,8-14.6,16.3-21.2,23.8c-21.5,24.6-36.5,41-40.6,54.5   C416.2,317.3,404.4,741.4,401.2,905.1z"
   id="path31" />&#10;	<path
   class="st16"
   d="M1873.8,247.8c-93.1-3.7-276.8-10.2-419.7-10.7c-199.7-0.7-884.9,14.6-884.9,14.6S580.9,618.4,593,794   c11.5,167.7,14.8,356.7,50.4,432.7c-2.6-14.3-4.5-27.3-6.1-38.6c-0.9-6.5-1.7-12.5-2.4-17.7c-5.7-43.4-37-481.6-41.9-591.7   c-5-110.2-9.2-311.7-9.2-311.7s10-0.2,27.7-0.5c99.3-1.7,439.8-7,591.4-3.4c147.6,3.5,539.6,0.4,670.4-0.8   c27.3-0.2,43.2-0.4,43.2-0.4s-7.8,318.2-14.9,514.4c-5.3,145-6.6,290.5-23.1,410.1c-3.6,26.3-8,51.4-13.3,75   c21.4-45.3,28.7-89.6,37.4-228.2c9.6-152.1,19.9-409.1,22-503.2c2.1-94.2,8.9-279.7,8.9-279.7S1910.8,249.2,1873.8,247.8z"
   id="path32" />&#10;	<path
   d="M1873.3,262.2l-7.6,205.7l-18.2,389.4l-8.9,189.6l-0.7,16l-2.4,51c0,0-695.2,14.9-855.8,11.4   c-160.6-3.6-303.2-9.6-303.2-9.6s-1.7-20.8-4.3-52.3c-6.5-78.2-18.8-221.9-25.2-274.3c-8.9-73.6-20.8-326.6-20.8-326.6   s-14-96.3-14.7-195.9c-17.6,0.3-27.7,0.5-27.7,0.5s4.2,201.5,9.2,311.7c5,110.2,36.3,548.4,41.9,591.7c0.7,5.2,1.5,11.2,2.4,17.7   c37.1-0.3,500.9-4.1,747.5,0c234,3.9,455.9-0.9,493.7-1.8c16.4-119.7,17.8-265.1,23.1-410.1c7.1-196.2,14.9-514.4,14.9-514.4   S1900.5,262,1873.3,262.2z"
   id="path33" />&#10;	<path
   class="st17"
   d="M1855.1,1300.7c3.7-12.6,7.1-25.7,10.2-39.4c-2.1,4.4-4.3,8.8-6.7,13.4c2.4-4.5,4.6-9,6.7-13.4   c5.3-23.6,9.6-48.7,13.3-75c-37.8,0.9-259.7,5.6-493.7,1.8c-246.6-4.1-710.5-0.3-747.5,0c1.6,11.2,3.5,24.3,6.1,38.6   c1.7,3.6,3.4,6.9,5.2,9.9c-1.8-3.1-3.5-6.4-5.2-9.9c4,22.2,9.4,47.4,17.2,73.9c45.2-3.5,275.2-20.9,448.8-24.7   C1301.3,1271.6,1691.5,1279.3,1855.1,1300.7z"
   id="path34" />&#10;	<path
   class="st17"
   d="M1524.5,1453c-4.8,25.8-8.4,46.6-11.2,65.6c79.9,7.1,155,16.2,214.5,26c12.6-16.4,87.9-117.4,125-236.6   c-62.5-5.7-185.6-10.9-318.6-14.2C1535.7,1324.2,1536.6,1388.2,1524.5,1453z"
   id="path35" />&#10;	<path
   d="M1407.5,464.2c270.8,2.8,458.1,3.7,458.1,3.7l7.6-205.7c-130.8,1.2-522.8,4.3-670.4,0.8c-151.5-3.6-492.1,1.7-591.4,3.4   c0.7,99.7,14.7,195.9,14.7,195.9S1136.7,461.3,1407.5,464.2z"
   id="path36" />&#10;	<path
   d="M1112.9,1504.4c-4.3,0.2-8.5,0.4-12.8,0.6c0.2,10.6,0.2,20.9,0,31.1c36.1-2.2,73.8-3.5,112.6-3.6   c100.2-0.3,195.9,4.7,280.3,12c0.2-1.6,0.4-3.2,0.6-4.8l1.8-13.9c0.4-2.8,0.8-5.7,1.2-8.6   C1362.8,1505.7,1218.1,1499.8,1112.9,1504.4z"
   id="path37" />&#10;	<path
   class="st17"
   d="M1133.2,1291.6c-16.1,0.4-32.6,0.9-49.4,1.4c3.8,21.4,8.9,58.6,12.2,116.9c2.1,37.5,3.7,67.5,4.1,95.3   c4.3-0.2,8.5-0.4,12.8-0.6c105.2-4.6,249.9,1.3,383.7,12.7c2.8-19.4,6.5-40.7,11.4-67.2c11.8-63.3,10.8-127.4,9.4-156.4   C1379.1,1290.3,1232.3,1289.1,1133.2,1291.6z"
   id="path38" />&#10;	<path
   d="M1109.4,1275.9c-173.6,3.8-403.5,21.2-448.8,24.7c1.1,3.7,2.2,7.4,3.4,11.2c38.2-2.1,231.9-12.8,402.9-18.3   c5.7-0.2,11.3-0.4,16.9-0.5c16.8-0.5,33.3-1,49.4-1.4c99.1-2.4,245.9-1.3,384.3,2c5.6,0.1,11.2,0.3,16.8,0.4   c133,3.3,256,8.5,318.6,14.2c0.6-1.9,1.2-3.9,1.8-5.9c0.1-0.5,0.3-1,0.4-1.5C1691.5,1279.3,1301.3,1271.6,1109.4,1275.9z"
   id="path39" />&#10;	<path
   d="M1743.1,1550.5c0.7-0.9,1.4-1.9,2.2-2.9c-5.7-1-11.5-2-17.5-3c-1.2,1.5-1.8,2.3-1.8,2.3s0.6-0.8,1.8-2.3   c-59.5-9.8-134.6-18.9-214.5-26c-0.3,1.8-0.5,3.6-0.8,5.4l-1.8,13.2c-0.4,3-0.7,5.9-1.1,8.8c123.8,11.3,221,27.5,268.3,38.8   c5.7-9.1,10.5-17.2,14.2-23.8c-2.3-0.1-3.9-0.1-4-0.1c0,0,1.7,0,4,0.1c0.7-1.2,1.3-2.3,1.9-3.4c-14.3-3.3-30.6-6.6-48.8-9.9   C1744.6,1548.6,1743.8,1549.6,1743.1,1550.5z"
   id="path40" />&#10;	<path
   class="st0"
   d="M576.3,235.1c5.3-0.7,181.9-13.2,327.1-19.4s452.2-8.5,664.4-0.4c187.6,7.2,323.9,15.3,352.9,17.1   c3.1,0.2,5.7-2.3,5.7-5.4v-22.3c-5.8-1.8-19-3.7-30.6-5.3c-15.1-2.1-49.9-5.5-115.5-11.6c-65.6-6-181.8-13.4-288.7-16.3   c-106.9-2.9-325.5-8.4-449.5-1.6C797.7,173.8,567.4,204,567.4,204s-0.3,0-0.9,0.3c0,5.3,0,16.1,0,22.9   C566.5,236.6,570.9,235.8,576.3,235.1z"
   id="path41" />&#10;	<path
   class="st5"
   d="M1941.2,305.7c0,46.4-5.9,170.2-7.7,269.1c-1.8,98.9-7.4,232.2-10,309.7c-2.7,77.6-11.5,278.8-32.3,363   c-20.5,83.1-90.1,225.8-145.9,300.1c18.1,3.2,34.5,6.5,48.8,9.9c0.4-0.7,0.7-1.3,1-2c-0.8-0.1-1.6-0.1-2.3-0.1   c0.7,0,1.5,0.1,2.3,0.1c0.3-0.6,0.6-1.2,0.9-1.7c14.2-28.1,66.8-119.1,80.3-153.5c13.5-34.5,46.2-86.4,64.7-195.5   c18.5-109.1,18.1-180.9,23.5-263c5.3-82.1,8.5-183.7,10.3-273.3c1.8-89.6,3.9-172.4,2.8-242.7c-1.1-70.4,2-158.9,0.3-179.5   c-1.7-20.6-13.3-28.3-24.6-33.9c-6.2-3.1-10.7-4.4-13.5-3.7c0,0.8,0,1.5,0,2.3C1939.7,211,1941.2,259.3,1941.2,305.7z"
   id="path42" />&#10;	<path
   class="st17"
   d="M1066.9,1293.5c-171,5.6-364.7,16.2-402.9,18.3c8,25.5,18.2,51.8,31.3,77.5c37.5,73.5,82.7,136.5,93.5,151.3   c69.3-11.7,179.4-27.9,294.6-34.6c-0.4-26.9-1.9-57-4.1-95.2C1076,1351,1070.6,1313.7,1066.9,1293.5z"
   id="path43" />&#10;	<path
   class="st5"
   d="M625.1,1250c-19.2-102.3-31.5-242.1-37.8-360.4c-6.4-118.3-21.9-406-24.3-444.3c-2.4-38.4-2.6-230.7-2.6-230.7   c-4.3-12.4-15.8-5.9-23.3-1.2c-7.5,4.6-15.3,10.5-15.6,18.1c-0.4,7.6-3.8,26.2-3.8,67.3c0,41,5.9,262,7.2,322   c1.3,60,10.4,217.5,16,276.4c5.6,58.9,15.2,179.1,22.7,236.2c7.5,57,15.2,104.8,31.7,164.5c16.5,59.7,44,103.2,59.2,133.3   c15.2,30.1,38.6,70.1,48.5,88.2c7.1,13.1,14,25.1,17.4,33.9c8.1-1.6,25.5-5,49.8-9.3C746.8,1499.6,643.3,1347,625.1,1250z"
   id="path44" />&#10;	<path
   d="M723.4,1562.8c5-1.2,11-2.4,15.3-3.2C734.5,1560.4,728.4,1561.6,723.4,1562.8c3.5,4.8,9.9,14.2,18,26   c20.7-5.3,158.8-39.1,341.9-51.6c0-1.6,0.1-3.1,0.1-4.7c0.1-6.5,0.1-13.2,0-20c0-2.2-0.1-4.3-0.1-6.6   c-115.1,6.8-225.2,22.9-294.6,34.6c1.6,2.1,2.4,3.3,2.4,3.3s-0.9-1.1-2.4-3.3c-6.6,1.1-12.8,2.2-18.6,3.2c1.3,2.4,2.3,4.5,3.1,6.3   c-0.8-1.7-1.8-3.9-3.1-6.3c-24.4,4.3-41.7,7.7-49.8,9.3c0.6,1.6,1.1,3,1.5,4.4c6.8-1.7,14.6-3.1,15.9-3.3   c-1.3,0.2-9.2,1.7-15.9,3.3c0.4,1.6,0.7,3.1,0.8,4.3C722.9,1562.1,723.2,1562.5,723.4,1562.8z"
   id="path45" />&#10;	<path
   d="M587.3,889.6c6.4,118.3,18.7,258.1,37.8,360.4c18.2,97,121.7,249.6,145.1,293.8c5.8-1,12-2.1,18.6-3.2   c-10.8-14.8-56-77.8-93.5-151.3c-13.1-25.7-23.3-52-31.3-77.5c-4.4,0.2-6.8,0.4-6.8,0.4s2.3-0.1,6.8-0.4c-1.2-3.8-2.3-7.5-3.4-11.2   c-5.2,0.4-7.9,0.6-7.9,0.6s2.8-0.2,7.9-0.6c-7.8-26.5-13.2-51.7-17.2-73.9c-35.6-76.1-38.9-265-50.4-432.7   c-12.1-175.6-23.8-542.3-23.8-542.3s685.2-15.3,884.9-14.6c142.9,0.5,326.6,7,419.7,10.7l0-0.4l0,0.4c37,1.5,59.7,2.5,59.7,2.5   s-6.8,185.5-8.9,279.7c-2.1,94.2-12.4,351.1-22,503.2c-8.7,138.6-16,182.9-37.4,228.2c-3.1,13.6-6.4,26.8-10.2,39.4   c1.2,0.2,2.3,0.3,3.5,0.5c-1.1-0.2-2.3-0.3-3.5-0.5c-0.1,0.5-0.3,1-0.4,1.5c-0.6,2-1.2,3.9-1.8,5.9c2,0.2,3.9,0.4,5.7,0.5   c-1.8-0.2-3.7-0.4-5.7-0.5c-37.1,119.2-112.5,220.2-125,236.6c6,1,11.8,2,17.5,3c55.8-74.3,125.4-217,145.9-300.1   c20.8-84.2,29.6-285.5,32.3-363c2.7-77.6,8.3-210.8,10-309.7c1.8-98.9,7.7-222.7,7.7-269.1s-1.5-94.8-1.5-94.8c0-0.8,0-1.6,0-2.3   c-2.3,0.5-3.5,2.4-3.5,5.7l-6.2-0.4c0,0,0-5.5-0.5-7.6l-1.6,1.8l1.6-1.8c-0.1-0.5-1.2-1-3-1.6v22.3c0,3.1-2.6,5.6-5.7,5.4   c-29-1.8-165.2-9.8-352.9-17.1c-212.2-8.2-519.1-5.8-664.4,0.4s-321.8,18.7-327.1,19.4c-5.3,0.7-9.8,1.4-9.8-7.9   c0-6.8,0-17.6,0-22.9c-1.5,0.7-4.5,2.9-6,10.2c0,0,0.2,192.4,2.6,230.7C565.4,483.6,580.9,771.2,587.3,889.6z"
   id="path46" />&#10;	<path
   class="st17"
   d="M1493.1,1544.5c-84.3-7.3-180.1-12.2-280.3-12c-38.8,0.1-76.5,1.4-112.6,3.6c-0.6,33.2-3.3,65.8-9.2,107.7   c-8,57.2,13.3,120.9,27.3,154.8c47.7,2.6,97.8,4.5,135.5,4c78-1,131.8,0.5,217.3-8.8c4.2-27.7,10.3-75.5,13.4-132.4   C1487.3,1610.1,1489.2,1577.7,1493.1,1544.5z"
   id="path47" />&#10;	<path
   class="st17"
   d="M1501.2,1662.3c-3,54.5-8.7,100.9-12.9,129.5c0.7-0.1,1.4-0.2,2.1-0.2c97-11.7,140.7-24.2,191.2-78.9   c37.2-40.3,74-92.2,96.4-128c-47.3-11.3-144.5-27.4-268.3-38.8C1505.8,1579.1,1503.9,1611.2,1501.2,1662.3z"
   id="path48" />&#10;	<g
   id="g52">&#10;		<g
   id="g51">&#10;			<g
   id="g49">&#10;				<path
   d="M1534.3,1293.9c-5.6-0.1-11.2-0.3-16.8-0.4c1.4,29.1,2.4,93.1-9.4,156.4c-5,26.5-8.6,47.8-11.4,67.2      c-0.4,2.9-0.8,5.8-1.2,8.6l-1.8,13.9c-0.2,1.6-0.4,3.2-0.6,4.8c-3.9,33.3-5.8,65.7-8.6,117c-3.1,56.8-9.3,104.7-13.4,132.4      c5.6-0.6,11.3-1.3,17.2-2c4.2-28.6,10-75,12.9-129.5c2.8-51.1,4.7-83.3,8.5-116.4c0.3-2.9,0.7-5.9,1.1-8.8l1.8-13.2      c0.2-1.8,0.5-3.6,0.8-5.4c2.8-19,6.4-39.8,11.2-65.6C1536.6,1388.2,1535.7,1324.2,1534.3,1293.9z"
   id="path49" />&#10;			</g>&#10;			<g
   id="g50">&#10;				<path
   d="M1091,1643.8c5.9-41.9,8.6-74.5,9.2-107.7c0.2-10.2,0.2-20.5,0-31.1c-0.5-27.7-2-57.8-4.1-95.3      c-3.3-58.3-8.4-95.5-12.2-116.9c-5.6,0.2-11.3,0.4-16.9,0.5c3.7,20.2,9.1,57.5,12.4,117.3c2.1,38.2,3.6,68.3,4.1,95.2      c0,2.2,0.1,4.4,0.1,6.6c0.1,6.8,0.1,13.5,0,20c0,1.6,0,3.2-0.1,4.7c-0.6,33-3.3,64-9,104.3c-8.1,57.5,10.7,119.2,25.2,156      c6.1,0.4,12.3,0.7,18.6,1C1104.3,1764.7,1082.9,1701,1091,1643.8z"
   id="path50" />&#10;			</g>&#10;		</g>&#10;	</g>&#10;	<path
   class="st17"
   d="M1074.4,1641.5c5.7-40.3,8.3-71.3,9-104.3c-183.1,12.6-321.3,46.4-341.9,51.6c14.1,20.6,33.8,48.7,54,73.2   c32.8,39.7,60.5,74.6,107.2,101.3c0,0,35.8,21.9,79.2,25.8c21.3,1.9,67,5.5,117.9,8.4C1085.2,1760.8,1066.3,1699.1,1074.4,1641.5z"
   id="path52" />&#10;	<path
   class="st18"
   d="M1046.3,1063.4c-138.6-1-338.7-0.2-374.1,0c2.6,31.4,4.3,52.3,4.3,52.3s142.5,6,303.2,9.6   c160.6,3.6,855.8-11.4,855.8-11.4l2.4-51h-68.1C1769.7,1062.9,1198.7,1064.5,1046.3,1063.4z"
   id="path53" />&#10;	<path
   class="st15"
   d="M2101.8,868.3c1.1-99.7-19.2-361.4-20.3-435c-0.5-33.6-0.5-62.7-0.4-84.3c-0.6-10.6-1-18.4-1-22.1   c0-19-4.6-25.1-7.1-29.9c-2.5-4.8-25.6-31.1-43.2-52.6c-5.3-6.5-11.9-14.3-18.8-22.2l1.2,12.8c0,0,9.6,44.8,12.8,185   c3.2,140.2,1.6,236.7,1.6,354.5c0,117.8-2.1,296.4-6.9,390.8c-4.8,94.4-3,169-19.4,223.4c0,0-6.4,40.9-73.6,131.5   c-52.2,72.9-75,100.2-79.3,103.4c-0.8,0.6-1.6,1.2-2.2,1.7c5.5,11.3,11.1,23.4,16.1,35.4c13.9,33.2,31.4,79.5,42.3,109   c1.8,5,3.7,10.5,5.7,16.3c21.2-0.9,141.5-6.1,160.1-7.8c18.1-1.6,27.1-2.3,35.1-8.7c-0.7-39-0.1-108.1,4.7-202.2   C2115.7,1441.9,2100.7,968,2101.8,868.3z"
   id="path54" />&#10;	<rect
   x="900"
   y="330.6"
   class="st0"
   width="695.2"
   height="101.6"
   id="rect54" />&#10;	<g
   id="g58">&#10;		<g
   id="g55">&#10;			<circle
   class="st19"
   cx="567.9"
   cy="2022.4"
   r="58.8"
   id="circle54" />&#10;			<circle
   class="st20"
   cx="567.9"
   cy="2022.4"
   r="52.4"
   id="circle55" />&#10;			<path
   class="st21"
   d="M561.3,1961.4c40.3,0,72.9,32.5,72.9,72.6c0,4.1-0.4,8.2-1,12.2c2.7-7.6,4.2-15.8,4.2-24.4     c0-40.1-32.6-72.6-72.9-72.6c-36.1,0-66.1,26.2-71.9,60.5C502.7,1981.5,529.6,1961.4,561.3,1961.4z"
   id="path55" />&#10;		</g>&#10;		<g
   id="g57">&#10;			<circle
   class="st19"
   cx="1959.9"
   cy="2022.4"
   r="58.8"
   id="circle56" />&#10;			<circle
   class="st20"
   cx="1959.9"
   cy="2022.4"
   r="52.4"
   id="circle57" />&#10;			<path
   class="st21"
   d="M1953.3,1961.4c40.3,0,72.9,32.5,72.9,72.6c0,4.1-0.4,8.2-1,12.2c2.7-7.6,4.2-15.8,4.2-24.4     c0-40.1-32.6-72.6-72.9-72.6c-36.1,0-66.1,26.2-71.9,60.5C1894.7,1981.5,1921.6,1961.4,1953.3,1961.4z"
   id="path57" />&#10;		</g>&#10;	</g>&#10;	<g
   id="g65">&#10;		&#10;		&#10;	<path
   d="m 1982.6812,1590.6572 c -48.8981,-0.4852 -67.8617,33.1647 -66.1376,70.3737 1.8808,37.2092 22.4115,63.2555 68.0183,62.6083 45.6067,-0.6471 60.652,-30.2526 61.1224,-67.947 0.47,-37.6944 -19.5906,-64.5496 -63.0031,-65.035 z"
   fill="#e9e9e9"
   id="path13-3-7-5"
   style="stroke-width:1.59231" /><path
   d="m 532.25901,1587.3407 c -48.8981,-0.4852 -67.8617,33.1647 -66.1376,70.3737 1.8808,37.2092 22.4115,63.2555 68.0183,62.6083 45.6067,-0.6471 60.652,-30.2526 61.1224,-67.947 0.47,-37.6944 -19.5906,-64.5496 -63.0031,-65.035 z"
   fill="#e9e9e9"
   id="path13-3-7-5-5"
   style="stroke-width:1.59231" /></g>&#10;	&#10;	&#10;</g>&#10;<path
   class="st5"
   d="M729.5,1517.2l40.7,26.6c0,0,51.1,69.7,108.5,135.4s128.7,65.7,205.7,72.7c77.1,7.1,247.2,11.7,354.6,0  c107.5-11.7,173.2-17.6,215.5-65.7c42.3-48.1,90.7-138.6,90.7-138.6l49.8,7.9c0,0-0.8,52.1-32.5,89.6  c-31.7,37.6-121.2,135-207.8,151c-86.6,16-432,15-518.9,7.1c-86.9-7.8-123.9,7-168.8-23.3s-91.8-110.8-115.3-145.1  c-23.5-34.3-52.9-94.3-52.9-94.3L729.5,1517.2z"
   id="path78" />&#10;<path
   class="st10"
   d="M1812.5,1574.8c-6.1-10.8-6.8-11.8-11.1-12.8c-3-0.7-6.5-0.9-9.2-1.1c-3.6,6.6-8.4,14.6-14.2,23.8  c1.5,0.4,3,0.7,4.5,1.1c-1.4-0.4-2.9-0.7-4.5-1.1c-22.5,35.8-59.3,87.6-96.4,128c-50.5,54.7-94.2,67.2-191.2,78.9  c-0.7,0.1-1.4,0.2-2.1,0.2c-2.8,19.3-4.9,30.5-5,30.8c0.1-0.3,2.2-11.5,5-30.8c-5.9,0.7-11.6,1.4-17.2,2  c-2.4,16.2-4.2,25.5-4.2,25.7c0-0.2,1.8-9.6,4.2-25.7c-85.5,9.3-139.3,7.8-217.3,8.8c-37.7,0.5-87.9-1.4-135.5-4  c6.1,14.9,10.8,24,11,24.3c-0.2-0.3-4.9-9.4-11-24.3c-6.2-0.3-12.4-0.7-18.6-1c7.6,19.3,14,31.7,14.7,33.1  c-0.7-1.4-7.1-13.8-14.7-33.1c-50.9-3-96.6-6.5-117.9-8.4c-43.4-3.9-79.2-25.8-79.2-25.8c-46.6-26.7-74.4-61.6-107.2-101.3  c-20.2-24.5-39.9-52.6-54-73.2c-1.8,0.5-2.7,0.7-2.7,0.7s0.9-0.2,2.7-0.7c-8.1-11.9-14.5-21.2-18-26c-3.6,0.9-6.7,1.8-7.9,2.5  c-3.5,2.5-19.9,32.9-30.8,56.2c-1.7,3.7-3.9,8.3-6.3,13.4c33.7,38.8,69.9,76.8,111.1,119.8c57.2,59.7,131.9,83.9,164.2,87.1  c32.3,3.2,202.9,14.9,311,13.5c108-1.4,259.8-3.9,323.1-19.5c63.3-15.6,107.3-33.1,134.3-60.1c27-27,59-64.7,85.7-97.7  c23.2-28.8,31.6-44.9,33.4-48.6c-11.8-24.3-23.3-45.1-27.6-52.6L1812.5,1574.8z"
   id="path79" />&#10;<path
   class="st24"
   d="M1817.3,1572.1c-6.2-11-7.9-14-14.8-15.5c-2.4-0.5-5.1-0.8-7.4-1c-0.3,0.6-0.7,1.3-1,2  c1.6,0.4,3.2,0.7,4.7,1.1c-1.5-0.4-3.1-0.7-4.7-1.1c-0.6,1.1-1.2,2.2-1.9,3.4c2.6,0.1,6.2,0.4,9.2,1.1c4.3,1,5,2,11.1,12.8l1,1.8  c4.3,7.5,15.8,28.3,27.6,52.6c0.3-0.5,0.4-0.8,0.4-0.8s1.2-1.2,3.8-3.3c-11.6-23.8-22.8-43.9-26.9-51.3L1817.3,1572.1z"
   id="path80" />&#10;<path
   class="st24"
   d="M715.5,1565.3c1.2-0.7,4.3-1.6,7.9-2.5c-0.3-0.4-0.5-0.7-0.8-1c-0.1-1.3-0.4-2.7-0.8-4.3c-3.9,1-7.4,2-9.1,3  c-6.9,3.9-32.9,58.1-33.1,58.6c-1.5,3.2-3.3,6.9-5.2,11.2c1.3,1.5,2.7,3.1,4,4.6c2.4-5.1,4.5-9.7,6.3-13.4  C695.6,1598.3,712,1567.8,715.5,1565.3z"
   id="path81" />&#10;<path
   class="st10"
   d="M479.9,240.3c-0.8,8.5-4.5,35.2-7.2,54.9c-2.7,19.7,0,381.2,0,381.2s9.6,291.3,12.3,354.5  c2.7,63.2,9.2,204.9,9.2,204.9c3.2,60.8,8.9,133.4,24.9,175.9c17.4,40.5,76.1,120.8,120.8,177c11.3,14.2,22.8,28,34.6,41.6  c2-4.2,3.7-8,5.2-11.2c0.3-0.5,26.2-54.8,33.1-58.6c1.7-1,5.2-2,9.1-3c-0.4-1.4-0.9-2.8-1.5-4.4c-3.4,0.7-5.1,1-5.1,1s1.8-0.4,5.1-1  c-3.5-8.9-10.3-20.8-17.4-33.9c-9.9-18.1-33.3-58.1-48.5-88.2c-15.2-30.1-42.6-73.6-59.2-133.3c-16.5-59.7-24.3-107.4-31.7-164.5  c-7.5-57-17.1-177.3-22.7-236.2c-5.6-58.9-14.7-216.4-16-276.4c-1.3-60-7.2-280.9-7.2-322c0-41,3.5-59.6,3.8-67.3  c0.4-7.6,8.2-13.5,15.6-18.1c7.5-4.6,19-11.2,23.3,1.2l-0.4-9.7c0,0,0.9-15.9,0.9-29.6c0-5.6,0.9-10.1,2-13.5  c-0.9-0.3-2-0.3-3.4,0.2c-3.7,1.3-41.3,21.1-43.7,23.7c-1.7,1.9-20.3,21.9-39.6,43.1C480.1,230.7,480.5,233.8,479.9,240.3z"
   id="path82" />&#10;<path
   class="st10"
   d="M1926.8,1520.1c67.2-90.6,73.6-131.5,73.6-131.5c16.3-54.4,14.6-129,19.4-223.4c4.8-94.4,6.9-272.9,6.9-390.8  c0-117.8,1.6-214.3-1.6-354.5c-3.2-140.2-12.8-185-12.8-185l-1.2-12.8c-15.9-18.3-33.2-37.2-38.3-40.9c-7.3-5.3-37.7-18.8-41-20.3  c-0.6-0.2-1.2-0.4-1.9-0.4c3.5,6.4,9.3,21.1,9.8,48c2.8-0.7,7.3,0.6,13.5,3.7c11.4,5.7,22.9,13.3,24.6,33.9  c1.7,20.6-1.4,109.1-0.3,179.5c1.1,70.4-1.1,153.2-2.8,242.7c-1.8,89.6-5,191.2-10.3,273.3c-5.3,82.1-5,153.9-23.5,263  c-18.5,109.1-51.2,161-64.7,195.5c-13.5,34.5-66.1,125.5-80.3,153.5c-0.3,0.5-0.6,1.1-0.9,1.7c2.4,0.2,5,0.5,7.4,1  c6.9,1.5,8.6,4.5,14.8,15.5l1,1.8c4.2,7.4,15.3,27.5,26.9,51.3c0.7-0.5,1.4-1.1,2.2-1.7C1851.8,1620.3,1874.5,1592.9,1926.8,1520.1z  "
   id="path83" /><path
   d="m 1815.6134,326.4272 c -36.3515,-0.35624 -50.4493,24.34321 -49.1677,51.65511 1.3982,27.31189 16.6611,46.43022 50.5658,45.95523 33.9047,-0.47499 45.0897,-22.20576 45.4393,-49.8739 0.3495,-27.66813 -14.5639,-47.3802 -46.8374,-47.73644 z"
   fill="#e9e9e9"
   id="path13-3"
   style="stroke-width:1.17624" /><path
   d="m 1706.6362,338.11794 c -25.4779,-0.25135 -35.3587,17.17583 -34.4604,36.44627 0.98,19.27044 11.6773,32.75975 35.4403,32.42462 23.763,-0.33514 31.6022,-15.66771 31.8473,-35.18951 0.2449,-19.52179 -10.2075,-33.43003 -32.8272,-33.68138 z"
   fill="#e9e9e9"
   id="path13-3-7"
   style="stroke-width:0.827154" /><path
   d="m 781.32873,337.01243 c -25.4779,-0.25135 -35.3587,17.17583 -34.4604,36.44627 0.98,19.27044 11.6773,32.75975 35.4403,32.42462 23.763,-0.33514 31.6022,-15.66771 31.8473,-35.18951 0.2449,-19.52179 -10.2075,-33.43003 -32.8272,-33.68138 z"
   fill="#e9e9e9"
   id="path13-3-7-1"
   style="stroke-width:0.827154" /><path
   d="m 673.08224,321.59498 c -36.35142,-0.35624 -50.44925,24.34321 -49.16763,51.65511 1.39813,27.31189 16.66107,46.43022 50.56576,45.95523 33.90469,-0.47499 45.08974,-22.20576 45.43927,-49.8739 0.34953,-27.66813 -14.56387,-47.3802 -46.8374,-47.73644 z"
   fill="#e9e9e9"
   id="path13-3-1"
   style="stroke-width:1.17624" />&#10;<path
   style="font-weight:bold;font-size:85.3333px;font-family:'PT Sans';-inkscape-font-specification:'PT Sans Bold';white-space:pre;fill:#ff7b23;stroke:#000000;stroke-width:0"
   d="m 895.37773,356.50228 -16.64,-29.35466 h 14.08 l 9.21599,17.23733 2.048,6.05866 1.96267,-6.05866 9.64266,-17.23733 h 12.71466 l -17.23732,28.75732 18.09066,30.97599 h -13.90933 l -10.496,-18.43199 -2.304,-6.31467 -2.21866,6.31467 -10.58133,18.43199 h -12.71466 z m 42.49593,-29.35466 h 9.72799 l -3.072,18.432 h -6.65599 z m 63.23184,10.41067 h -17.40801 v 49.32264 H 972.00683 V 337.55829 H 954.5135 v -10.41067 h 46.592 z m 6.0585,-9.81333 q 1.9627,-0.34134 4.1814,-0.59734 2.304,-0.34133 4.5226,-0.512 2.304,-0.17066 4.4374,-0.256 2.1333,-0.0853 3.9253,-0.0853 4.1813,0 8.192,0.768 4.096,0.768 7.2533,2.64533 3.2427,1.87733 5.12,5.20533 1.9627,3.24267 1.9627,8.192 0,7.33866 -3.4133,11.94666 -3.4134,4.608 -9.1307,6.4 l 4.1813,2.64533 13.6534,22.78399 h -13.4827 l -13.568,-23.38132 -6.144,-1.10934 v 24.49066 h -11.6907 z m 17.92,8.95999 q -1.792,0 -3.584,0.0853 -1.7066,0.0853 -2.6453,0.34133 v 17.32266 h 4.9493 q 4.864,0 7.7654,-2.21867 2.9013,-2.21866 2.9013,-7.33866 0,-3.84 -2.3893,-5.97333 -2.3894,-2.21867 -6.9974,-2.21867 z m 59.7332,36.94932 h -18.3466 l -4.5227,13.22666 h -11.6907 l 21.504,-60.15997 h 8.6187 l 21.504,60.15997 h -12.288 z m -15.36,-9.38666 h 12.8 l -4.4373,-13.312 -1.792,-9.38666 h -0.4267 l -1.792,9.472 z m 37.5466,-36.52265 q 3.584,-0.68267 7.8507,-1.024 4.352,-0.42667 8.6187,-0.42667 4.4373,0 8.8746,0.768 4.5227,0.68267 8.1067,2.90133 3.584,2.13333 5.8027,6.05867 2.304,3.83999 2.304,10.06932 0,5.632 -1.9627,9.55733 -1.9627,3.84 -5.2053,6.31467 -3.2427,2.47466 -7.424,3.584 -4.096,1.10933 -8.5334,1.10933 -0.4266,0 -1.3653,0 -0.9387,0 -1.9627,0 -1.024,-0.0853 -2.048,-0.17067 -0.9386,-0.0853 -1.3653,-0.17066 v 20.56532 h -11.6907 z m 17.408,8.61866 q -1.7066,0 -3.2426,0.17067 -1.536,0.0853 -2.4747,0.256 v 19.37065 q 0.3413,0.0853 1.024,0.17067 0.6827,0.0853 1.4507,0.17067 0.768,0 1.4506,0 0.768,0 1.1094,0 2.304,0 4.5226,-0.42667 2.304,-0.42667 4.096,-1.536 1.792,-1.19466 2.816,-3.24266 1.1094,-2.048 1.1094,-5.376 0,-2.816 -1.024,-4.608 -1.024,-1.87733 -2.7307,-2.98667 -1.6213,-1.10933 -3.7547,-1.53599 -2.1333,-0.42667 -4.352,-0.42667 z m 28.5865,20.65066 q 0,-14.93333 6.5706,-22.95466 6.5707,-8.10666 18.7733,-8.10666 6.4,0 11.1787,2.21866 4.7787,2.21867 7.936,6.31467 3.1573,4.09599 4.6933,9.81333 1.536,5.71733 1.536,12.71466 0,14.93332 -6.656,23.03999 -6.5706,8.02133 -18.688,8.02133 -6.4853,0 -11.264,-2.21867 -4.7786,-2.21866 -7.936,-6.31466 -3.072,-4.096 -4.608,-9.81333 -1.5359,-5.71733 -1.5359,-12.71466 z m 12.2879,0 q 0,4.52266 0.768,8.36266 0.768,3.75467 2.304,6.48533 1.6214,2.73067 4.096,4.26667 2.4747,1.536 5.888,1.536 6.2294,0 9.6427,-4.864 3.4133,-4.864 3.4133,-15.78666 0,-4.352 -0.768,-8.10667 -0.6826,-3.75466 -2.2186,-6.57066 -1.536,-2.816 -4.0107,-4.352 -2.4747,-1.62133 -6.0587,-1.62133 -6.2293,0 -9.6426,5.03466 -3.4134,4.94933 -3.4134,15.616 z m 84.5652,29.86665 h -37.8027 v -59.73331 h 11.6907 v 49.32265 h 26.112 z m 7.2533,-59.73331 h 11.6907 v 59.73331 h -11.6907 z m 48.896,43.69065 q 0,-2.73066 -2.048,-4.43733 -1.9627,-1.70667 -5.0347,-3.072 -2.9867,-1.45067 -6.5707,-2.90133 -3.4986,-1.536 -6.5706,-3.66933 -2.9867,-2.21867 -5.0347,-5.46133 -1.9627,-3.24267 -1.9627,-8.27733 0,-4.352 1.4507,-7.50933 1.4507,-3.24267 4.096,-5.376 2.7307,-2.13333 6.4,-3.15733 3.6693,-1.024 8.192,-1.024 5.2053,0 9.8133,0.93866 4.608,0.85334 7.5947,2.56 l -3.6693,9.81333 q -1.8774,-1.19467 -5.632,-2.13333 -3.7547,-1.024 -8.1067,-1.024 -4.096,0 -6.3147,1.62133 -2.1333,1.62133 -2.1333,4.352 0,2.56 1.9627,4.26666 2.048,1.70667 5.0346,3.15734 3.072,1.45066 6.5707,2.98666 3.584,1.536 6.5707,3.75467 3.072,2.13333 5.0346,5.376 2.048,3.15733 2.048,7.93599 0,4.77867 -1.6213,8.27733 -1.536,3.41333 -4.4373,5.71733 -2.816,2.304 -6.912,3.41333 -4.0107,1.10934 -8.8747,1.10934 -6.4,0 -11.264,-1.19467 -4.864,-1.19466 -7.168,-2.38933 l 3.7547,-9.984 q 0.9386,0.512 2.3893,1.10934 1.536,0.59733 3.4133,1.10933 1.8774,0.512 3.9254,0.85333 2.1333,0.34133 4.352,0.34133 5.2053,0 7.936,-1.70666 2.816,-1.792 2.816,-5.376 z m 76.4584,-29.09865 q 0,4.35199 -1.6214,8.78933 -1.536,4.43733 -4.0106,8.70399 -2.3894,4.26667 -5.376,8.27733 -2.9014,3.92533 -5.7174,7.25333 l -4.5226,3.49867 v 0.42666 l 6.144,-1.19466 h 16.384 v 9.38666 h -35.9254 v -5.71733 q 2.048,-2.13333 4.608,-4.94933 2.56,-2.90133 5.12,-6.05867 2.6454,-3.24266 5.12,-6.65599 2.4747,-3.41333 4.4374,-6.82667 1.9626,-3.49866 3.072,-6.74133 1.1946,-3.24266 1.1946,-6.14399 0,-3.49867 -2.048,-5.71734 -1.9626,-2.30399 -6.3146,-2.30399 -2.7307,0 -5.632,1.19466 -2.816,1.10933 -4.7787,2.90133 l -4.4373,-7.85066 q 3.328,-2.73066 7.5093,-4.352 4.2667,-1.70666 9.984,-1.70666 3.6693,0 6.7413,1.024 3.072,1.024 5.2907,2.98666 2.2187,1.96267 3.4987,4.94933 1.28,2.90133 1.28,6.82667 z m 11.4346,39.50931 q 0,-2.98666 1.8773,-4.69333 1.8774,-1.792 4.9494,-1.792 3.2426,0 5.12,1.792 1.8773,1.70667 1.8773,4.69333 0,2.98667 -1.8773,4.77867 -1.8774,1.792 -5.12,1.792 -3.072,0 -4.9494,-1.792 -1.8773,-1.792 -1.8773,-4.77867 z m 20.8211,-24.31999 q 0,-15.70132 5.376,-23.29599 5.376,-7.67999 15.4454,-7.67999 10.752,0 15.7866,7.59466 5.0347,7.50933 5.0347,23.38132 0,15.78666 -5.4613,23.46666 -5.376,7.68 -15.4454,7.68 -10.6666,0 -15.7013,-8.02133 -5.0347,-8.10667 -5.0347,-23.12533 z m 11.0934,0 q 0,10.41067 2.2186,16.128 2.304,5.63199 7.5094,5.63199 5.0346,0 7.3386,-5.20533 2.3894,-5.20533 2.3894,-16.55466 0,-10.32533 -2.2187,-15.95732 -2.2187,-5.632 -7.5947,-5.632 -5.12,0 -7.424,5.29066 -2.2186,5.29067 -2.2186,16.29866 z"
   id="text83"
   transform="translate(88.196414,27.26464)"
   aria-label="X'TRAPOLIS 2.0" /></svg>
